<svg xmlns="http://www.w3.org/2000/svg" width="43" height="44" viewBox="0 0 43 44"><path fill="#80e2f2" d="M0 21.48a21.48 21.48 0 1 0 42.97 0 21.48 21.48 0 0 0-42.97 0z"/><path fill="#7cb142" d="M17.04 21.43l-1.09-.75-.62-.28-.33-.16c7.19-4.11 17.73-6.71 25.92-8.24a21.4 21.4 0 0 1 1.97 10.45c-7.99-.84-15.7-1.16-23.74-1.09z"/><path fill="#9bcb64" d="M42.78 22.52c-1.68.15-3-.05-4.84-.26-1.4-.15-2.82.53-4.22.37-1.16-.13-2.27-.75-3.44-.61-.91.11-1.73.7-2.65.76-1.14.08-2.19-.63-3.33-.65-1.39-.03-2.63.97-4.03 1.07-1.15.08-2.27-.45-3.42-.36-.92.08-1.76.54-2.66.72-1.51.3-3.06-.24-4.6-.29-1.37-.04-3.36.8-4.73.87-1.8.09-3.28-.65-4.86-.24.05.44.13.73.24 1.2h.01a21.44 21.44 0 0 0 19.13 17.7h.08l.39.03.17.01a3.23 3.23 0 0 0 .54.03l.29.01.34.01h.2l.48-.01h.07l.46-.02h.12l.4-.03.19-.01.26-.03a21.41 21.41 0 0 0 19.06-17.48c.21-.81.21-1.06.31-2.33h.03l.01-.24V22.6z"/><path fill="#add37f" d="M41.41 29.97c-3.55-.67-7.1-2.03-10.69-1.76-2.57.2-5.02 1.23-7.58 1.48-5.43.52-10.83-2.47-16.18-1.49-1.64.3-3.31.97-4.96 1.41a21.42 21.42 0 0 0 17.8 13.11h.08l.38.03.17.01a3.65 3.65 0 0 0 .54.03l.3.01.34.01h.19l.48-.01h.08l.45-.02h.13l.4-.03.19-.01.26-.03a21.44 21.44 0 0 0 17.62-12.74z"/><path fill="#9bcb64" d="M34.4 36.74s-5.99.07-14.3-2.57c-3.8-1.21-7.68-2.34-11.67-2.15a34.4 34.4 0 0 0-5.43.74 21.4 21.4 0 0 0 16.43 10.39l.08.01.39.03.17.01a3.65 3.65 0 0 0 .54.03l.3.01h.34l.16.01h.03l.48-.01H22l.45-.02h.13l.4-.03.19-.01.26-.03c4.1-.38 7.87-1.92 10.97-4.29z"/><path fill="#add37f" d="M34.93 38.21c-4.32-.54-8.67-1.26-12.89-1.79-2.95-.37-5.95-.63-8.89-.18A31.02 31.02 0 0 0 7 38a21.32 21.32 0 0 0 12.1 5.19l.08.01.39.03.17.01.33.02.21.01.3.01h1.09l.45-.02.13-.01.4-.02.19-.02.26-.02a21.31 21.31 0 0 0 11.83-4.98z"/><path fill="#9bcb64" d="M.79 16l.11.03.91.23 1.81.46 1.81.55.91.28.89.31 1.79.61 1.75.68.89.34.86.37 1.74.73.77.36.33.15.62.29 1.78.73-1.32.04-1.36.05-1.09.06-.28.02-2.75.16c-.86.06-1.71.15-2.56.22l-.13.02-1.34.12-.34.03-.36.04-.67.08c-1.79.22-3.6.41-5.37.69l-.11.01A21.05 21.05 0 0 1 0 21.79c0-2 .28-3.95.79-5.79z"/><path fill="#747474" d="M0 23.63l.11-.02c1.77-.28 3.57-.47 5.37-.68l.67-.08.36-.05.34-.02 1.34-.13.12-.01 2.57-.23 2.74-.16.29-.01 1.08-.07 1.37-.04 2.74-.09 2.73-.03L23.2 22l1.37.02 2.73.04 1.76.07.99.03 1.35.05 1.36.08 2.72.17 2.71.22c.91.06 1.81.15 2.71.25l1.94.19c-.13 1.97-.51 4-1.31 6.14l-.56-.12c-1.19-.26-2.4-.47-3.61-.71-1.22-.22-2.44-.43-3.67-.63-5.04-.75-9.63-1.19-14.64-1.59-2.35-.16-4.63-.32-6.8-.43a315.38 315.38 0 0 0-11.29-.33H.23c-.1-.6-.18-1.21-.23-1.82z"/><path fill="#ffed58" d="M2.05 23.63c-.68.06-1.37.13-2.05.21l.07.58c.67-.08 1.35-.15 2.03-.21zm38.69 1.62l-.11.56.19.04 1.48.31.13-.57-1.69-.34zm-2.28-.42c-.95-.17-1.91-.32-2.87-.46l-.08.57.14.02c.9.14 1.81.28 2.71.44zm-5.16-.78l-2.88-.33-.06.58c.95.1 1.91.21 2.86.33zm-5.19-.54c-.97-.08-1.93-.16-2.9-.22l-.03.58 2.88.21zm-5.21-.35c-.97-.04-1.93-.08-2.9-.1l-.01.57 2.88.11zm-5.22-.15l-2.9-.01.01.58 2.89.01zm-5.21.03c-.8-.06-1.8-.02-2.9.09l.02.58c1.02-.13 2.12-.13 2.89-.09zm-5.18.78c-1 .02-2.01.05-2.89.19l-.04-.58h.02c.9-.14 1.84-.21 2.87-.19z"/><path fill="#fff" d="M11.94 5.2c.26 0 .51.06.72.17a1.32 1.32 0 0 1 2.19.63c.31.09.55.33.67.62h.11a1.03 1.03 0 1 1 0 2.06c-.18 0-.34-.04-.49-.12a1.03 1.03 0 0 1-1.72.43 1.03 1.03 0 0 1-1.44.03 1.02 1.02 0 0 1-1.49.04 1.23 1.23 0 1 1-.15-2.42c.09-.81.77-1.44 1.6-1.44z"/><path fill="#ff0" d="M16 7.5a3.5 3.5 0 1 1 7 0 3.5 3.5 0 0 1-7 0z"/><path fill="#fff" d="M23.04 6.21c.27 0 .52.06.75.18a1.35 1.35 0 0 1 2.26.65c.32.09.58.33.69.64l.12-.01a1.07 1.07 0 1 1-.51 2.01c-.13.44-.54.77-1.02.77-.3 0-.57-.12-.76-.32a1.06 1.06 0 0 1-1.49.03c-.19.21-.47.35-.79.35-.29 0-.55-.12-.74-.31a1.27 1.27 0 1 1-.28-2.51h.12c.09-.83.79-1.48 1.65-1.48z"/><path fill="#9bcb64" d="M8.4 15.46a.08.08 0 0 1-.04.09c.08-.05.11.02.11.02.11.01-.01.1-.01.1-.03.01-.06-.03-.06-.03-.09.05-.04.08-.04.08.07-.02.03.04.03.04l-.05.01-.05.03v.01h.04l.01.03-.05.02.02.04c.05.08-.13.11-.13.11-.03.23-.25.15-.3.13l-.12.04a.47.47 0 0 1-.31-.08c-.06.02-.13 0-.13 0-.07 0-.04-.1-.04-.1-.06.12-.15.01-.15.01-.08-.08.02-.13.02-.13-.05-.06.02-.1.02-.1-.13-.02-.15-.09-.16-.13l-.12-.04c-.09.04-.2.08-.31.09-.27.04-.53-.03-.74-.18a.98.98 0 0 1-.34-.01c-.18.01-.11-.25-.11-.25-.09.2-.22.14-.29.09.01.06-.14.09-.14.09-.03.23-.25.15-.3.13a.27.27 0 0 1-.12.03.41.41 0 0 1-.31-.07H4.1c-.07 0-.04-.11-.04-.11-.06.13-.15.02-.15.02-.08-.08.02-.14.02-.14-.05-.05.02-.09.02-.09-.19-.04-.16-.16-.16-.16-.08-.11 0-.2 0-.2l-.03-.03a.4.4 0 0 1-.28-.08c-.06.02-.13 0-.13 0-.08.01-.05-.1-.05-.1-.05.12-.14.01-.14.01-.08-.08.02-.13.02-.13-.05-.06.02-.1.02-.1-.19-.03-.16-.16-.16-.16-.09-.11 0-.2 0-.2-.08-.06-.01-.12-.01-.12-.02-.07.08-.07.08-.07-.1-.2.08-.22.08-.22.03-.09.11-.04.11-.04.05-.1.19-.02.19-.02-.04-.09.09-.09.09-.09.03-.02.05-.02.07-.01v-.02c-.08-.11 0-.2 0-.2-.07-.06-.01-.12-.01-.12-.01-.03.01-.05.03-.06-.09-.19.05-.34.05-.34-.16-.12-.02-.25-.02-.25-.05-.15.17-.14.17-.14-.22-.41.16-.46.16-.46.07-.2.25-.08.25-.08.08-.22.38-.05.38-.05-.09-.19.19-.19.19-.19.19-.11.33.12.33.12.11-.15.2-.2.27-.2-.06-.21.15-.23.15-.23.04-.13.16-.05.16-.05.06-.15.26-.04.26-.04-.06-.12.13-.13.13-.13.12-.07.21.08.21.08.22-.29.33-.01.33-.01.38-.19.45.16.45.16.07-.1.18.01.28.15.06.09.02.18-.02.23.07.03.11.1.11.1.3-.38.44-.02.44-.02.5-.25.58.22.58.22.11-.13.24 0 .38.19.13.19-.07.35-.07.35.14.12-.07.2-.07.2.11.11 0 .22-.03.24.14-.11.2.02.2.02.2.04-.01.19-.01.19-.07.03-.12-.05-.12-.05-.09.05-.11.09-.1.11.24-.06.29.19.29.19.07-.09.16 0 .25.13s-.04.24-.04.24c.09.09-.05.14-.05.14.07.07 0 .15-.02.16.09-.07.13.02.13.02.14.02 0 .13 0 .13-.05.02-.08-.03-.08-.03-.04.01-.06.03-.07.04.09.04.11.15.11.15.06-.07.13 0 .2.1s-.03.19-.03.19c.07.06-.04.11-.04.11.06.06 0 .11-.02.13.08-.06.11.01.11.01.11.02 0 .1 0 .1-.04.02-.07-.02-.07-.02-.09.04-.04.07-.04.07.07-.02.03.05.03.05h-.04l-.06.03.01.02h.04v.03l-.05.02.02.03c.05.08-.13.12-.13.12-.03.23-.25.15-.3.13-.04.01-.08.03-.13.03a.4.4 0 0 1-.3-.07z"/><path fill="#4e342e" d="M6.33 19.93s-.02-.11.01-.49l-.11-1.23s-.02-.45.04-.58c0 0 .89-.86 1.07-.91 0 0 .13-1.13.29-1.15l-.16-.1s-.15 1.07-.25 1.23c0 0-.41-1.54-.35-1.7l-.05.05s.19 1.53.15 1.64l-.26.27s-.09.27-.14.15c0 0-.5-.31-.26-1.91l-.2-.13-.16 1.05s.11 0 .06.27c0 0 .2.64.17.7 0 0-.05.31-.18.22l-.28-.66s-.24-.95-.08-1.09l-.06-.08s-.1.47-.02.81c0 0-.43-.47-.56-.47v.08s.09-.17.53.48c0 0 .3.86.31 1.03 0 0-.03.51-.01.61 0 0 .27 1.36-.17 1.78z"/><path fill="#bbb" d="M10.39 20.69a.57.57 0 0 1-.59.53l-.42-.03h-.03l-.35-1c.11-.13.27-.2.45-.19l.42.02c.31.02.54.28.52.59z"/><path fill="#f3501e" d="M10 19.96c2.1-1.05 7.38-4.11 12.16-2.5 0 0 1.01.3 2.59 1.76 0 0 9.05.01 10.54 2.87 0 0-.96 1.43-7.72 1.39 0 0-10.95-.51-13.78-.75 0 0-.88.04-2.04-.78-.52-.37-1.07-.75-1.45-1.08l-.3-.91z"/><path fill="#333" d="M31.46 24.19c.09-.03.39-.02.39-.05-.02-1.03-1.08-2.07-2.28-2.14A2.43 2.43 0 0 0 27 24.3l4.48.26z"/><path fill="#424242" d="M27 23.93a2.06 2.06 0 0 0 4.1.24c.06-1.13-.8-2.1-1.93-2.17-1.13-.06-2.1.8-2.17 1.93z"/><path fill="#fff" d="M27 24.48a1.57 1.57 0 1 0 3.13.17 1.57 1.57 0 0 0-3.13-.17z"/><path fill="#bbb" d="M28 24.17c-.04.69.49 1.28 1.17 1.32.69.04 1.28-.49 1.32-1.17A1.25 1.25 0 0 0 29.32 23 1.25 1.25 0 0 0 28 24.17zM16.95 19.72L16.26 18c-1.58.36-3.05.95-4.26 1.52 3.37.47 4.95.2 4.95.2zM18 18.12s.92 1.8 2.2 1.87c0 0 3.06.38 4.64-.24a8.26 8.26 0 0 0-2.47-1.71c-1.48-.04-4.32-.09-4.37.08z"/><path fill="#333" d="M20.19 21.23c0 .09-.08.16-.18.16l-.85-.05c-.09 0-.16-.09-.16-.18.01-.09.09-.17.18-.16l.85.05c.09 0 .17.08.16.18zM18.46 23.36c.08-.02.38.01.38-.01.07-1.03-.89-2.15-2.08-2.32A2.41 2.41 0 0 0 14 23.09l4.44.64z"/><path fill="#424242" d="M14.02 23.76a2.05 2.05 0 1 0 4.06.58 2.05 2.05 0 0 0-4.06-.58z"/><path fill="#fff" d="M14.02 23.34a1.57 1.57 0 0 0 3.1.45 1.57 1.57 0 0 0-3.1-.45z"/><path fill="#bbb" d="M15.01 23.07a1.25 1.25 0 1 0 1.41-1.06 1.26 1.26 0 0 0-1.41 1.06z"/></svg>