<svg xmlns="http://www.w3.org/2000/svg" xmlns:xlink="http://www.w3.org/1999/xlink" width="74" height="55" viewBox="0 0 74 55"><defs><path id="40o6a" d="M993.443 1146.127c-1.566 5.77-5.86 9.642-10.694 9.642h-52.711l-1.924-17.904h12.096v3.289c0 1.009.648 1.827 1.448 1.827h38.218c.797 0 1.447-.82 1.447-1.827 0-1.007-.65-1.827-1.447-1.827h-2.151l2.895-3.654h15.151zm-58.986-22.089h14.8v16.924h-6.054v-3.462c0-1.062-.603-1.923-1.346-1.923h-7.4zm4.229-7.403h11.618v4.24h-11.618zm9.514-7.404v4.23h-4.229v-4.23zm10.571 26.442h8.458v4.23h-8.458zm0-6.346h8.458v4.23h-8.458zm0-7.404h8.458v4.23h-8.458zm11.629 13.75h6.343l-2.766 4.23H970.4zm0-6.346h8.457v4.23H970.4zm0-7.404h8.457v4.23H970.4zm11.629 7.404h8.457v4.23h-8.457zm0-7.404h8.457v4.23h-8.457zm17.667 11.315c-.264-.44-.675-.738-1.138-.738h-4.626v-12.833c0-1.013-.647-1.834-1.445-1.834h-34.69c-.798 0-1.445.821-1.445 1.834v20.166h-2.89v-25.3c0-1.012-.648-1.833-1.446-1.833h-.867v-5.867c0-1.012-.647-1.833-1.446-1.833h-7.227c-.798 0-1.445.821-1.445 1.833v5.867h-3.469c-.798 0-1.445.821-1.445 1.833v5.5h-2.891c-.798 0-1.446.821-1.446 1.834v12.833h-4.336c-.841 0-1.545 1.026-1.432 2.08l2.313 21.633c.097.909.709 1.587 1.432 1.587h53.89c6.08 0 11.477-4.907 13.428-12.21.023-.093 2.862-12.906 2.874-12.96.126-.569.01-1.151-.253-1.592z"/></defs><g><g transform="translate(-926 -1105)"><use fill="#3bb3f0" xlink:href="#40o6a"/></g></g></svg>