<svg xmlns="http://www.w3.org/2000/svg" width="101" height="101" viewBox="0 0 101 101"><path fill="#324a5e" d="M0 50.5a50.5 50.5 0 1 1 101 0 50.5 50.5 0 0 1-101 0z"/><path fill="#54c0eb" d="M16 51.5a33.5 33.5 0 1 1 67 0 33.5 33.5 0 0 1-67 0z"/><path fill="#fff" d="M83.45 50.88a33.52 33.52 0 0 1-17.41 29.4v-.02c.22-2.32.78-4.6 1.63-6.75.12-.3.24-.64.12-.94-.1-.23-.32-.39-.52-.55-1.86-1.5-2.14-4.16-2.69-6.49-.08-.36-.2-.76-.48-.99a1.66 1.66 0 0 0-.69-.34c-1.33-.4-2.75-.49-4.08-.91-1.32-.42-2.65-1.25-3.13-2.55-.63-1.75.38-3.61.74-5.43.16-.77.18-1.56.08-2.34-.06-.45-.14-.95.11-1.32.16-.22.4-.38.66-.5 2.41-1.32 4.89-2.67 7.64-2.99.85-.1 1.78-.06 2.48.46.49.4.81.99 1.32 1.35.56.37 1.27.41 1.96.41 2.12-.02 4.24-.28 6.3-.81.41-.1.87-.26 1.09-.63.37-.66-.22-1.43-.83-1.85a7.12 7.12 0 0 0-4.68-1.2c-.35.04-.73.1-1.05-.08-.27-.16-.41-.44-.59-.7a4.39 4.39 0 0 0-3.74-2.09c-1.49.06-2.93 1.2-3.13 2.69-.12.89.02 2.1-.81 2.39-.28.1-.58.04-.85 0-.99-.17-2-.43-2.76-1.06-.75-.66-1.14-1.83-.61-2.68a22 22 0 0 0 4.04-1.26l-1.19-1.79c-.14-.21-.3-.45-.28-.71.08-.91 1.75-.55 2.22-1.35.2-.31.14-.77.38-1.04.18-.22.47-.26.75-.3l4.3-.66c1.03-.15 2.19-.41 2.65-1.34.14-.3.2-.65.36-.93.55-1.05 2.14-1.09 2.87-2.02a5.2 5.2 0 0 1-2.95.16c.37-.79.75-1.63.63-2.5-.14-.85-1.01-1.66-1.84-1.34-.85.31-.97 1.42-.95 2.33l.04 2.52c0 .39 0 .83-.24 1.15-.53.67-1.58.27-2.32-.16-.19.71-1.26.65-1.84.19-1.2-.97-1.22-3.04-.06-4.05.4-.34.95-.62 1.03-1.13.08-.4-.15-.85.08-1.19.16-.22.46-.28.72-.34a4.53 4.53 0 0 0 3.18-3.6 33.03 33.03 0 0 1 12.34 25.88zM54.6 24.1c-.39.57-.93 1.07-1.23 1.7-.23.5-.33 1.03-.61 1.51-1.03 1.74-4.14 1.8-4.51 3.8-.08.45 0 .95-.2 1.34-.24.48-.85.7-1.39.64-1.5-.18-2.16-2.06-2.12-3.59.04-1.52.42-3.17-.33-4.49-.7-1.23-2.12-1.78-3.31-2.54-.99-.61-1.9-1.68-1.9-2.77A33.3 33.3 0 0 1 49.57 18c2.08 0 4.12.2 6.1.55.14 1.98.02 3.98-1.07 5.55zM41.36 37.82c-.17.71-.77 1.38-1.5 1.38-.5.02-1.07-.23-1.43.1-.29.28-.21.74-.2 1.15.06.99-.37 1.98-1.12 2.63-.42.36-.91.62-1.29.99-.5.52-.71 1.21-1.01 1.85-1.45 2.99-4.73 4.59-7.88 5.68-.99.33-2.12.77-2.52 1.74-.31.77.02 1.76.74 2.2.71.43 1.74.27 2.29-.36.1.99.22 2.02.86 2.79.37.48.91.77 1.34 1.21.44.42.77 1.05.58 1.62-.62.5-1.65.36-2.12-.25-.42-.54-.44-1.29-.87-1.83-.8-.97-2.32-.57-3.57-.67a4.03 4.03 0 0 1-3.52-4.35c.04-.34.12-.72-.08-1.01-.16-.22-.44-.32-.67-.42a3.73 3.73 0 0 1-1.85-1.76c-.19-.42-.31-.89-.63-1.23a2.47 2.47 0 0 0-.91-.55A33.55 33.55 0 0 1 37.23 20c.07.87-.08 1.74-.82 2.1-.21.1-.45.16-.63.32-.32.29-.28.83-.04 1.18.24.36.63.58 1.01.81 1.98 1.25 3.7 3.29 3.6 5.63-.04.71-.29 1.5-.95 1.76-.49.2-1.07.04-1.58-.14-.77-.28-1.62-.75-1.74-1.56-.08-.5.16-1.01.17-1.53.02-.51-.33-1.13-.83-1.05-.39.08-.57.56-.55.95 0 .4.12.82.02 1.19-.16.58-.71.93-1.25 1.21-.53.3-1.09.59-1.62.91-.77.42-1.57.87-2.04 1.62-.48.76-.46 1.86.26 2.38.37.26.85.32 1.22.59.58.44.64 1.25.91 1.92.28.66 1.19 1.21 1.67.68.14-.16.2-.36.23-.58.18-.93.04-1.88.08-2.81.04-.95.28-1.94.99-2.55.72-.62 2-.58 2.44.25.1.18.14.36.26.52.55.75 1.86-.02 2.63.49.42.28.53.82.63 1.29.1.75.24 1.51.06 2.24zM47.83 70.64c-.65.79-.61 1.94-.89 2.93-.69 2.58-3.37 4.02-4.97 6.14-.38.49-.71 1.05-1.23 1.38-.47.34-1.09.46-1.5.86-.24.21-.4.49-.52.79a34.26 34.26 0 0 1-3.9-1.65c0-.63.04-1.26.12-1.88.24-1.76.77-3.6.12-5.26-.61-1.53-2.1-2.48-3.19-3.72a8.22 8.22 0 0 1-1.76-3.45c-.14-.57-.2-1.23.14-1.74.22-.34.59-.56.81-.89.57-.85.04-2.1.59-2.95.28-.44.8-.66 1.31-.81a9.16 9.16 0 0 1 9.84 3.18c.24.32.46.66.79.87.86.56 2.22.16 2.82.97.21.3.25.7.45 1.01.59.97 2.4 1.01 2.5 2.14.09.91-.96 1.39-1.53 2.08z"/><path fill="#ff7058" d="M81.29 28.15c0 8.35-15.14 29.61-15.14 29.61S51 36.5 51 28.15a15.15 15.15 0 1 1 30.29 0z"/><path fill="#fff" d="M58 28.5a8.5 8.5 0 1 1 17 0 8.5 8.5 0 0 1-17 0z"/><path fill="#ff7058" d="M46.45 53.23c0 5.1-9.22 18.05-9.22 18.05S28 58.31 28 53.23a9.23 9.23 0 1 1 18.45 0z"/><path fill="#fff" d="M32 53a5 5 0 1 1 10 0 5 5 0 0 1-10 0z"/></svg>