<?xml version="1.0" encoding="UTF-8"?>
<svg width="68px" height="66px" viewBox="0 0 68 66" version="1.1" xmlns="http://www.w3.org/2000/svg" xmlns:xlink="http://www.w3.org/1999/xlink">
    <!-- Generator: Sketch 49 (51002) - http://www.bohemiancoding.com/sketch -->
    <title>icon_ customs</title>
    <desc>Created with Sketch.</desc>
    <defs></defs>
    <g id="Welcome" stroke="none" stroke-width="1" fill="none" fill-rule="evenodd">
        <g id="prodact-card-wer_1-copy" transform="translate(-1317.000000, -1097.000000)" fill="#3BB3F0" fill-rule="nonzero">
            <g id="icon_-customs" transform="translate(1317.000000, 1097.000000)">
                <path d="M67.6679688,15.7222656 L56.3346354,4.72226563 C56.1221354,4.51601562 55.8338216,4.4 55.5333333,4.4 L35.1333333,4.4 L35.1333333,6.6 L54.4,6.6 L54.4,14.3 C54.4,16.1224121 55.9223633,17.6 57.8,17.6 L65.7333333,17.6 L65.7333333,56.1 C65.7333333,57.9224121 64.21097,59.4 62.3333333,59.4 L38.5333333,59.4 L38.5333333,42.9 C38.5217123,35.435791 32.6004883,29.2343261 24.9333333,28.6558594 L24.9333333,26.2898926 C27.5702148,25.7635254 29.4633463,23.5125 29.4666667,20.9 L29.4666667,18.7 C31.3443034,18.7 32.8666667,17.2224121 32.8666667,15.4 L32.8666667,5.5 C32.8627929,2.46372074 30.3282877,0.0037597725 27.2,0 L6.8,0 C6.17412106,0 5.66666667,0.492529263 5.66666667,1.1 C5.66611332,2.78330085 6.1104817,4.4381348 6.95771481,5.90712898 C5.58255208,6.61181647 4.88583981,8.14042969 5.2721029,9.60190426 L6.28203125,13.5158203 C5.55488288,14.5223633 5.46578773,15.8388183 6.05126957,16.9291504 C6.63730462,18.0194824 7.79996748,18.7021484 9.06666667,18.7 L9.06666667,20.9 C9.06998705,23.5125 10.9631185,25.7635254 13.6,26.2898926 L13.6,28.6569335 C5.93339837,29.2354004 0.0121744792,35.4363281 0,42.9 L0,64.9 C0,65.5074707 0.507454392,66 1.13333333,66 L37.4,66 C38.0258789,66 38.5333333,65.5074707 38.5333333,64.9 L38.5333333,61.6 L62.3333333,61.6 C65.4616211,61.5962402 67.9961263,59.1362793 68,56.1 L68,16.5 C68,16.2083496 67.8804688,15.9285156 67.6679688,15.7222656 Z M29.1866537,35.8917969 L26.5708008,37.5847656 C26.2885742,37.7679199 26.1054037,38.0638672 26.0722004,38.391504 C26.0389975,38.7196777 26.1585287,39.044629 26.3986979,39.2777344 L27.7589192,40.5979492 L22.138737,44.8405761 L27.1252929,33.4103516 C27.2630859,33.0730469 27.2204752,32.6916992 27.011849,32.3903808 L26.0666667,31.0089355 C26.4341146,31.075 26.7932617,31.1587891 27.1479817,31.2543946 L29.1866537,35.8917969 Z M11.960319,37.5847656 L9.34446622,35.8917969 L11.3842448,31.2543946 C11.7389648,31.1587891 12.098112,31.075 12.46556,31.0089355 L11.5170573,32.3893067 C11.308431,32.690625 11.2658204,33.0719727 11.4036133,33.4092773 L16.3901692,44.839502 L10.7699871,40.5963379 L12.1302083,39.2766602 C12.3703775,39.0435547 12.4899088,38.7186036 12.4567058,38.3904297 C12.4235025,38.0627929 12.2403321,37.7668457 11.9575521,37.5836915 L11.960319,37.5847656 Z M22.6666667,26.4 L22.6666667,29.3148926 L19.2666667,33.4398926 L15.8666667,29.3148926 L15.8666667,26.4 L22.6666667,26.4 Z M14.8163412,31.561084 L17.6496745,35.0007324 L15.2341471,36.7608398 L13.7383463,33.1310547 L14.8163412,31.561084 Z M19.2666667,36.575 L22.3982748,38.8539551 L19.2666667,45.6918946 L16.1350586,38.8539551 L19.2666667,36.575 Z M23.2969727,36.7586915 L20.8814454,34.998584 L23.7147787,31.5589355 L24.79056,33.1267578 L23.2969727,36.7586915 Z M29.4666667,16.5 L29.4666667,14.3 C30.0925456,14.3 30.6,14.7925293 30.6,15.4 C30.6,16.0074707 30.0925456,16.5 29.4666667,16.5 Z M27.2,2.2 C29.0776367,2.2 30.6,3.67758793 30.6,5.5 L30.6,12.3024902 C30.2369792,12.1719727 29.8534831,12.1037598 29.4666667,12.1 L29.4666667,11 C29.4666667,10.3925293 28.9592123,9.9 28.3333333,9.9 C26.7545248,9.81083978 25.3882162,8.80429688 24.8757812,7.3524902 C24.7512696,6.99047855 24.4430338,6.71708978 24.0606446,6.62954105 C23.6782552,6.54199219 23.2764975,6.65263665 22.9986979,6.92226563 C21.4198894,8.45678708 17.3137696,8.8 15.8666667,8.8 C11.9249023,8.79516605 8.58245439,5.98608395 8.01357418,2.2 L27.2,2.2 Z M9.06666667,8.45786136 L9.06666667,12.1 C8.79938147,12.1021484 8.53264977,12.1349121 8.27311205,12.197754 L7.46627604,9.0674804 C7.37994792,8.7387696 7.45576168,8.39018551 7.67158207,8.12324219 C7.83870439,7.92827145 8.07167962,7.79667969 8.32900394,7.75263665 C8.56529955,7.99916989 8.81155602,8.23442386 9.06666667,8.45786136 Z M7.93333333,15.4 C7.93333333,14.7925293 8.44078772,14.3 9.06666667,14.3 L9.06666667,16.5 C8.44078772,16.5 7.93333333,16.0074707 7.93333333,15.4 Z M11.3333333,20.9 L11.3333333,9.95478523 C12.7400391,10.6406739 14.2922852,10.9983886 15.8666667,11 C16.408431,11 20.6268879,10.9473634 23.3999023,9.36450199 C24.2333008,10.7174804 25.6106771,11.6719239 27.2,11.9979492 L27.2,20.9 C27.2,22.7224121 25.6776367,24.2 23.8,24.2 L14.7333333,24.2 C12.8556966,24.2 11.3333333,22.7224121 11.3333333,20.9 Z M2.26666667,42.9 C2.27220045,38.6358886 4.59088542,34.689209 8.36940104,32.5139161 L6.89628913,35.8665527 C6.6810221,36.3537109 6.8542317,36.9208984 7.30911458,37.2152344 L9.55862627,38.6702636 L8.26536458,39.9222656 C8.03404955,40.1457031 7.91285811,40.4545411 7.93333333,40.7703614 C7.95325521,41.0861817 8.11263021,41.3783692 8.37106123,41.5722656 L18.1333333,48.9376465 L18.1333333,63.8 L9.06666667,63.8 L9.06666667,42.9 L6.8,42.9 L6.8,63.8 L2.26666667,63.8 L2.26666667,42.9 Z M36.2666667,63.8 L31.7333333,63.8 L31.7333333,42.9 L29.4666667,42.9 L29.4666667,63.8 L20.4,63.8 L20.4,48.9376465 L30.1622721,41.5679688 C30.4207031,41.3740723 30.5800781,41.0818848 30.6,40.7660645 C30.6204752,40.4502442 30.4992838,40.1408692 30.2679687,39.9179688 L28.9791341,38.6702636 L31.2291992,37.2152344 C31.6835287,36.9208984 31.8567383,36.3537109 31.6414713,35.8665527 L30.1683594,32.5139161 C33.9452148,34.6902832 36.2622396,38.6364259 36.2666667,42.9 L36.2666667,63.8 Z M56.6666667,14.3 L56.6666667,8.15546875 L64.1307292,15.4 L57.8,15.4 C57.1741211,15.4 56.6666667,14.9074707 56.6666667,14.3 Z" id="Shape"></path>
                <polygon id="Shape" points="41 37 44 37 44 39 41 39"></polygon>
                <polygon id="Shape" points="48 37 57 37 57 39 48 39"></polygon>
                <polygon id="Shape" points="41 42 57 42 57 44 41 44"></polygon>
                <path d="M52.5166015,47.338604 C51.7738715,47.5948288 50.8889974,47.5948288 50.1468099,47.338604 C49.4860026,47.1071405 48.7476128,46.9908704 48,47.0005596 L48,48.4704429 C48.4134114,48.4614714 48.8230251,48.5278602 49.1832682,48.6620731 C50.5341797,49.1117224 52.1270617,49.1117224 53.4779731,48.6620731 C54.2212457,48.4054895 55.1077474,48.4054895 55.85102,48.6620731 C56.5123697,48.8931778 57.2518446,49.0094478 58,48.9993998 L58,47.5295166 C57.584961,47.5388469 57.1748047,47.4720993 56.8134765,47.3371686 C55.46148,46.888237 53.8685981,46.888237 52.5166015,47.3371686 L52.5166015,47.338604 Z" id="Shape"></path>
                <g id="car" transform="translate(31.000000, 17.000000)" stroke="#3BB3F0">
                    <path d="M29.3864307,6.1545061 L26.8962705,5.038348 L24.698323,1.5963409 C24.0630781,0.598657681 22.945047,-0.00618777027 21.7444341,4.77498418e-05 L12.3809238,4.77498418e-05 C11.2946549,4.77498418e-05 10.2655581,0.492653839 9.60490341,1.34068457 L6.76535855,4.98846384 L2.03278379,6.26050994 C0.832170864,6.58475699 0,7.66350197 0,8.88566391 L0,10.6627871 C0,12.1655475 1.21967027,13.406416 2.75061057,13.406416 L3.15716732,13.406416 C3.64630592,15.2583655 5.57109807,16.368288 7.45777553,15.888153 C8.69650315,15.5701415 9.6684279,14.6223424 9.98605037,13.406416 L20.6581653,13.406416 C21.1473039,15.2583655 23.072096,16.368288 24.9587735,15.888153 C26.1975011,15.5701415 27.1694258,14.6223424 27.4870483,13.406416 L28.2493422,13.406416 C29.7802825,13.406416 30.9999528,12.1655475 30.9999528,10.6627871 L30.9999528,8.63624311 C31.0063052,7.56996917 30.3710603,6.59722803 29.3864307,6.1545061 Z M6.56843262,14.7408173 C5.32335255,14.7408173 4.3133131,13.7493696 4.3133131,12.5272077 C4.3133131,11.3050457 5.32335255,10.313598 6.56843262,10.313598 C7.81351269,10.313598 8.82355214,11.3050457 8.82355214,12.5272077 C8.82990459,13.7431341 7.81986514,14.7345818 6.56843262,14.7408173 Z M24.0694306,14.7408173 C22.8243505,14.7408173 21.814311,13.7493696 21.814311,12.5272077 C21.814311,11.3050457 22.8243505,10.313598 24.0694306,10.313598 C25.3145106,10.313598 26.3245501,11.3050457 26.3245501,12.5272077 C26.3309025,13.7431341 25.3208631,14.7345818 24.0694306,14.7408173 Z M28.2493422,12.159312 L27.5759826,12.159312 C27.3663518,10.2574783 25.6194282,8.88566391 23.6819311,9.0976716 C22.0366468,9.27226616 20.7407471,10.5505478 20.5628785,12.159312 L10.0749847,12.159312 C9.86535383,10.2574783 8.11843026,8.88566391 6.18093321,9.0976716 C4.53564883,9.27226616 3.23974916,10.5505478 3.06188058,12.159312 L2.74425812,12.159312 C1.91208725,12.159312 1.26413742,11.4796403 1.26413742,10.6627871 L1.26413742,8.88566391 C1.25778497,8.21846326 1.70880887,7.63855989 2.36311116,7.45772981 L7.31166919,6.12956402 C7.44507063,6.0921509 7.56576717,6.01732466 7.64834901,5.9050853 L10.6085904,2.09518251 C11.0342045,1.55892778 11.6885068,1.24715177 12.3809238,1.24715177 L21.7444341,1.24715177 C22.506728,1.24091625 23.2245548,1.62128298 23.6247591,2.25730603 L25.9243458,5.86143666 C25.9878703,5.9674405 26.0895095,6.04850226 26.1975011,6.09838642 L28.8528249,7.28937076 C29.3864307,7.53255605 29.7294629,8.05633974 29.7231105,8.63624311 L29.7231105,10.6627871 L29.7294629,10.6627871 C29.7294629,11.4796403 29.0815131,12.159312 28.2493422,12.159312 Z" id="Shape"></path>
                </g>
            </g>
        </g>
    </g>
</svg>