<?xml version="1.0" encoding="UTF-8"?>
<svg width="58px" height="70px" viewBox="0 0 58 70" version="1.1" xmlns="http://www.w3.org/2000/svg" xmlns:xlink="http://www.w3.org/1999/xlink">
    <!-- Generator: Sketch 49 (51002) - http://www.bohemiancoding.com/sketch -->
    <title>icon_cost</title>
    <desc>Created with Sketch.</desc>
    <defs></defs>
    <g id="Welcome" stroke="none" stroke-width="1" fill="none" fill-rule="evenodd">
        <g id="prodact-card-wer_1-copy" transform="translate(-554.000000, -1097.000000)" fill="#3BB3F0" fill-rule="nonzero">
            <g id="icon_cost" transform="translate(554.000000, 1097.000000)">
                <path d="M41,6 C34.3837003,6 29,11.3837003 29,18 L31.1818182,18 C31.1818182,12.5859375 35.5859375,8.18181818 41,8.18181818 L41,6 Z" id="Shape"></path>
                <path d="M51.8181818,16 C51.8181818,21.4140625 47.4140625,25.8181818 42,25.8181818 L42,28 C48.6162997,28 54,22.6162997 54,16 L51.8181818,16 Z" id="Shape"></path>
                <path d="M58,16.9354839 C58,7.59726244 50.4945726,0 41.2692308,0 C34.8623047,0 29.293551,3.6671497 26.4827598,9.03225806 L1.11538462,9.03225806 C0.498328611,9.03225806 0,9.53668413 0,10.1612903 L0,68.8709677 C0,69.4955739 0.498328611,70 1.11538462,70 L50.1923077,70 C50.8093637,70 51.3076923,69.4955739 51.3076923,68.8709677 L51.3076923,30.4524477 C55.361854,27.3586347 58,22.4599136 58,16.9354839 Z M27.9156588,27.0967742 L6.69230769,27.0967742 L6.69230769,15.8064516 L24.5951022,15.8064516 C24.5705942,16.1813256 24.5384615,16.5539945 24.5384615,16.9354839 C24.5384615,20.750378 25.8057956,24.2631678 27.9156588,27.0967742 Z M49.0769231,67.7419355 L2.23076923,67.7419355 L2.23076923,11.2903226 L25.5144231,11.2903226 C25.2568172,12.0240833 25.0313439,12.7727287 24.8750375,13.5483871 L5.57692308,13.5483871 C4.95986707,13.5483871 4.46153846,14.0528132 4.46153846,14.6774194 L4.46153846,28.2258065 C4.46153846,28.8504126 4.95986707,29.3548387 5.57692308,29.3548387 L29.9323918,29.3548387 C32.9174617,32.1482013 36.8926532,33.8709677 41.2692308,33.8709677 C44.0887357,33.8709677 46.743765,33.1553995 49.0769231,31.9028794 L49.0769231,67.7419355 Z M41.2692308,31.6129032 C33.2741887,31.6129032 26.7692308,25.0283518 26.7692308,16.9354839 C26.7692308,8.84261593 33.2741887,2.25806452 41.2692308,2.25806452 C49.2642728,2.25806452 55.7692308,8.84261593 55.7692308,16.9354839 C55.7692308,25.0283518 49.2642728,31.6129032 41.2692308,31.6129032 Z" id="Shape"></path>
                <path d="M42.25,21.8571429 C44.3172608,21.8571429 46,20.414795 46,18.6428571 C46,16.8709193 44.3172608,15.4285714 42.25,15.4285714 L39.75,15.4285714 C39.0603028,15.4285714 38.5,14.9483119 38.5,14.3571429 C38.5,13.7659738 39.0603028,13.2857143 39.75,13.2857143 L46,13.2857143 L46,11.1428571 L42.25,11.1428571 L42.25,9 L39.75,9 L39.75,11.1428571 C37.6827392,11.1428571 36,12.585205 36,14.3571429 C36,16.1290807 37.6827392,17.5714286 39.75,17.5714286 L42.25,17.5714286 C42.9396972,17.5714286 43.5,18.0516881 43.5,18.6428571 C43.5,19.2340262 42.9396972,19.7142857 42.25,19.7142857 L36,19.7142857 L36,21.8571429 L39.75,21.8571429 L39.75,24 L42.25,24 L42.25,21.8571429 Z" id="Shape"></path>
                <path d="M14.75,35 L7.25,35 C6.55847172,35 6,35.5026245 6,36.125 L6,42.875 C6,43.4973755 6.55847172,44 7.25,44 L14.75,44 C15.4415283,44 16,43.4973755 16,42.875 L16,36.125 C16,35.5026245 15.4415283,35 14.75,35 Z M13.5,41.75 L8.5,41.75 L8.5,37.25 L13.5,37.25 L13.5,41.75 Z" id="Shape"></path>
                <path d="M23.75,35 L16.25,35 C15.5584717,35 15,35.5026245 15,36.125 L15,42.875 C15,43.4973755 15.5584717,44 16.25,44 L23.75,44 C24.4415283,44 25,43.4973755 25,42.875 L25,36.125 C25,35.5026245 24.4415283,35 23.75,35 Z M22.5,41.75 L17.5,41.75 L17.5,37.25 L22.5,37.25 L22.5,41.75 Z" id="Shape"></path>
                <path d="M36.75,35 L29.25,35 C28.5584717,35 28,35.5026245 28,36.125 L28,42.875 C28,43.4973755 28.5584717,44 29.25,44 L36.75,44 C37.4415283,44 38,43.4973755 38,42.875 L38,36.125 C38,35.5026245 37.4415283,35 36.75,35 Z M35.5,41.75 L30.5,41.75 L30.5,37.25 L35.5,37.25 L35.5,41.75 Z" id="Shape"></path>
                <path d="M14.75,44 L7.25,44 C6.55847172,44 6,44.5026245 6,45.125 L6,51.875 C6,52.4973755 6.55847172,53 7.25,53 L14.75,53 C15.4415283,53 16,52.4973755 16,51.875 L16,45.125 C16,44.5026245 15.4415283,44 14.75,44 Z M13.5,50.75 L8.5,50.75 L8.5,46.25 L13.5,46.25 L13.5,50.75 Z" id="Shape"></path>
                <path d="M23.75,44 L16.25,44 C15.5584717,44 15,44.5026245 15,45.125 L15,51.875 C15,52.4973755 15.5584717,53 16.25,53 L23.75,53 C24.4415283,53 25,52.4973755 25,51.875 L25,45.125 C25,44.5026245 24.4415283,44 23.75,44 Z M22.5,50.75 L17.5,50.75 L17.5,46.25 L22.5,46.25 L22.5,50.75 Z" id="Shape"></path>
                <path d="M36.75,44 L29.25,44 C28.5584717,44 28,44.5026245 28,45.125 L28,51.875 C28,52.4973755 28.5584717,53 29.25,53 L36.75,53 C37.4415283,53 38,52.4973755 38,51.875 L38,45.125 C38,44.5026245 37.4415283,44 36.75,44 Z M35.5,50.75 L30.5,50.75 L30.5,46.25 L35.5,46.25 L35.5,50.75 Z" id="Shape"></path>
                <path d="M38,45.1111111 L38,62.8888889 C38,63.5035807 38.5584717,64 39.25,64 L46.75,64 C47.4415283,64 48,63.5035807 48,62.8888889 L48,45.1111111 C48,44.4964193 47.4415283,44 46.75,44 L39.25,44 C38.5584717,44 38,44.4964193 38,45.1111111 Z M40.5,46.2222222 L45.5,46.2222222 L45.5,61.7777778 L40.5,61.7777778 L40.5,46.2222222 Z" id="Shape"></path>
                <path d="M14.75,57 L7.25,57 C6.55847172,57 6,57.5026245 6,58.125 L6,64.875 C6,65.4973755 6.55847172,66 7.25,66 L14.75,66 C15.4415283,66 16,65.4973755 16,64.875 L16,58.125 C16,57.5026245 15.4415283,57 14.75,57 Z M13.5,63.75 L8.5,63.75 L8.5,59.25 L13.5,59.25 L13.5,63.75 Z" id="Shape"></path>
                <path d="M23.75,57 L16.25,57 C15.5584717,57 15,57.5026245 15,58.125 L15,64.875 C15,65.4973755 15.5584717,66 16.25,66 L23.75,66 C24.4415283,66 25,65.4973755 25,64.875 L25,58.125 C25,57.5026245 24.4415283,57 23.75,57 Z M22.5,63.75 L17.5,63.75 L17.5,59.25 L22.5,59.25 L22.5,63.75 Z" id="Shape"></path>
                <path d="M36.75,57 L29.25,57 C28.5584717,57 28,57.5026245 28,58.125 L28,64.875 C28,65.4973755 28.5584717,66 29.25,66 L36.75,66 C37.4415283,66 38,65.4973755 38,64.875 L38,58.125 C38,57.5026245 37.4415283,57 36.75,57 Z M35.5,63.75 L30.5,63.75 L30.5,59.25 L35.5,59.25 L35.5,63.75 Z" id="Shape"></path>
            </g>
        </g>
    </g>
</svg>