<?xml version="1.0" encoding="UTF-8"?>
<svg width="39px" height="57px" viewBox="0 0 39 57" version="1.1" xmlns="http://www.w3.org/2000/svg" xmlns:xlink="http://www.w3.org/1999/xlink">
    <!-- Generator: Sketch 49 (51002) - http://www.bohemiancoding.com/sketch -->
    <title>icon_auction</title>
    <desc>Created with Sketch.</desc>
    <defs></defs>
    <g id="Welcome" stroke="none" stroke-width="1" fill="none" fill-rule="evenodd">
        <g id="prodact-card-wer_1-copy" transform="translate(-1212.000000, -649.000000)" fill="#FFFFFF" fill-rule="nonzero">
            <g id="icon_auction" transform="translate(1212.000000, 649.000000)">
                <path d="M36.6632714,0 L2.33672858,0 C1.04612418,0 0,1.06325504 0,2.37499382 L0,48.2836243 C0,49.595363 1.04612418,50.6586181 2.33672858,50.6586181 L5.97034152,50.6586181 L5.97034152,55.8123547 C5.97034152,56.4681498 6.49333059,56.9998516 7.13855977,57 C7.48016028,57 7.80467346,56.8481488 8.02666267,56.5842276 L10.5970641,53.5442356 L13.1674655,56.5842276 C13.5869083,57.0826795 14.3244383,57.1411637 14.8147132,56.7150007 C15.0742361,56.4893763 15.2237867,56.1595491 15.2237867,55.8123547 L15.2237867,50.6586181 L36.6632714,50.6586181 C37.9538758,50.6586181 39,49.595363 39,48.2836243 L39,2.37499382 C39,1.06325504 37.9538758,0 36.6632714,0 Z M11.6734694,51.1578947 C11.2766156,50.6055921 10.5788053,50.5407895 10.1149341,51.0129934 C10.0712691,51.0574013 10.0306441,51.1059211 9.99319728,51.1578947 L8.66666667,53 L8.66666667,48 C10.0632547,48.6261513 11.603412,48.6261513 13,48 L13,53 L11.6734694,51.1578947 Z M15.1666667,41.5 C15.1668143,43.9662636 13.2553361,45.9731778 10.8805631,46 L10.8333333,46 C8.44011126,46 6.5,43.9852691 6.5,41.5 C6.5,39.0147309 8.44011126,37 10.8333333,37 C13.2265554,37 15.1666667,39.0147309 15.1666667,41.5 C15.1666667,41.5 15.1666667,41.5 15.1666667,41.5 Z M36.7743363,48 L15.1814159,48 L15.1814159,46.2742561 C17.8258112,43.6713583 17.8775811,39.3988034 15.2970501,36.7314877 C12.7165192,34.0641721 8.48067847,34.0119534 5.83628319,36.6148512 C3.19188791,39.217749 3.14011799,43.490304 5.72064897,46.1576197 C5.75870206,46.197044 5.79719764,46.2358732 5.83628319,46.2742561 L5.83628319,48 L2.16666667,48 L2.16666667,2 L36.8333333,2 L36.7743363,48 Z" id="Shape"></path>
                <path d="M31.6584107,12 L8.34158927,12 C7.60069659,12 7,12.44775 7,13 C7,13.55225 7.60069659,14 8.34158927,14 L31.6584107,14 C32.3993034,14 33,13.55225 33,13 C33,12.44775 32.3994711,12 31.6584107,12 Z" id="Shape"></path>
                <path d="M31.6584107,17 L8.34158927,17 C7.60069659,17 7,17.44775 7,18 C7,18.55225 7.60069659,19 8.34158927,19 L31.6584107,19 C32.3993034,19 33,18.55225 33,18 C33,17.44775 32.3994711,17 31.6584107,17 Z" id="Shape"></path>
                <path d="M31.6584107,25 L8.34158927,25 C7.60069659,25 7,25.44775 7,26 C7,26.55225 7.60069659,27 8.34158927,27 L31.6584107,27 C32.3993034,27 33,26.55225 33,26 C33,25.44775 32.3994711,25 31.6584107,25 Z" id="Shape"></path>
                <path d="M31.6584107,31 L8.34158927,31 C7.60069659,31 7,31.44775 7,32 C7,32.55225 7.60069659,33 8.34158927,33 L31.6584107,33 C32.3993034,33 33,32.55225 33,32 C33,31.44775 32.3994711,31 31.6584107,31 Z" id="Shape"></path>
            </g>
        </g>
    </g>
</svg>