<?xml version="1.0" encoding="UTF-8"?>
<svg width="74px" height="55px" viewBox="0 0 74 55" version="1.1" xmlns="http://www.w3.org/2000/svg" xmlns:xlink="http://www.w3.org/1999/xlink">
    <!-- Generator: Sketch 49 (51002) - http://www.bohemiancoding.com/sketch -->
    <title>icon_delivery</title>
    <desc>Created with Sketch.</desc>
    <defs></defs>
    <g id="Welcome" stroke="none" stroke-width="1" fill="none" fill-rule="evenodd">
        <g id="prodact-card-wer_1-copy" transform="translate(-926.000000, -1105.000000)" fill="#3BB3F0" fill-rule="nonzero">
            <path d="M999.695614,1133.23847 C999.432133,1132.7981 999.021232,1132.5 998.557576,1132.5 L993.932292,1132.5 L993.932292,1119.66667 C993.932292,1118.6543 993.285227,1117.83333 992.486837,1117.83333 L957.7975,1117.83333 C956.999255,1117.83333 956.352045,1118.6543 956.352045,1119.66667 L956.352045,1139.83333 L953.461279,1139.83333 L953.461279,1114.53333 C953.461279,1113.52097 952.814213,1112.7 952.015823,1112.7 L951.148637,1112.7 L951.148637,1106.83333 C951.148637,1105.82097 950.501571,1105 949.703182,1105 L942.476194,1105 C941.677949,1105 941.030739,1105.82097 941.030739,1106.83333 L941.030739,1112.7 L937.561993,1112.7 C936.763748,1112.7 936.116538,1113.52097 936.116538,1114.53333 L936.116538,1120.03333 L933.225772,1120.03333 C932.427527,1120.03333 931.780317,1120.8543 931.780317,1121.86667 L931.780317,1134.7 C931.780317,1134.7 927.462884,1134.7 927.44424,1134.7 C926.60278,1134.7 925.899058,1135.72557 926.011937,1136.77973 L928.324579,1158.41307 C928.421703,1159.32203 929.033648,1160 929.756882,1160 L983.647606,1160 C989.727305,1160 995.123518,1155.09308 997.07541,1147.78963 C997.097957,1147.69705 999.936836,1134.88443 999.948977,1134.82943 C1000.07501,1134.2611 999.958949,1133.67883 999.695614,1133.23847 Z M982.028571,1121.92308 L990.485714,1121.92308 L990.485714,1126.15385 L982.028571,1126.15385 L982.028571,1121.92308 Z M982.028571,1129.32692 L990.485714,1129.32692 L990.485714,1133.55769 L982.028571,1133.55769 L982.028571,1129.32692 Z M970.4,1121.92308 L978.857143,1121.92308 L978.857143,1126.15385 L970.4,1126.15385 L970.4,1121.92308 Z M970.4,1129.32692 L978.857143,1129.32692 L978.857143,1133.55769 L970.4,1133.55769 L970.4,1129.32692 Z M970.4,1135.67308 L976.742857,1135.67308 L973.976536,1139.90385 L970.4,1139.90385 L970.4,1135.67308 Z M958.771429,1121.92308 L967.228571,1121.92308 L967.228571,1126.15385 L958.771429,1126.15385 L958.771429,1121.92308 Z M958.771429,1129.32692 L967.228571,1129.32692 L967.228571,1133.55769 L958.771429,1133.55769 L958.771429,1129.32692 Z M958.771429,1135.67308 L967.228571,1135.67308 L967.228571,1139.90385 L958.771429,1139.90385 L958.771429,1135.67308 Z M943.971429,1109.23077 L943.97157,1109.23077 L948.2,1109.23077 L948.2,1113.46154 L943.971429,1113.46154 L943.971429,1109.23077 Z M938.685714,1116.63462 L950.314286,1116.63462 L950.314286,1120.86538 L938.685714,1120.86538 L938.685714,1116.63462 Z M934.457143,1124.03846 L949.257143,1124.03846 L949.257143,1140.96154 L943.202524,1140.96154 L943.202524,1137.5 C943.202524,1136.43808 942.600197,1135.57692 941.857008,1135.57692 L934.457143,1135.57692 L934.457143,1124.03846 Z M993.44329,1146.1271 C991.877012,1151.89634 987.583933,1155.76923 982.748592,1155.76923 L930.037971,1155.76923 L928.114286,1137.86538 L940.209805,1137.86538 L940.209805,1141.15385 C940.209805,1142.16267 940.857885,1142.98077 941.657527,1142.98077 L979.87573,1142.98077 C980.673345,1142.98077 981.323452,1142.16048 981.323452,1141.15385 C981.323452,1140.14721 980.67349,1139.32692 979.87573,1139.32692 L977.724921,1139.32692 L980.620219,1135.67308 L995.771429,1135.67308 L993.44329,1146.1271 Z" id="icon_delivery"></path>
        </g>
    </g>
</svg>