<?xml version="1.0" encoding="UTF-8"?>
<svg width="67px" height="55px" viewBox="0 0 67 55" version="1.1" xmlns="http://www.w3.org/2000/svg" xmlns:xlink="http://www.w3.org/1999/xlink">
    <!-- Generator: Sketch 49 (51002) - http://www.bohemiancoding.com/sketch -->
    <title>icon_crush</title>
    <desc>Created with Sketch.</desc>
    <defs></defs>
    <g id="Welcome" stroke="none" stroke-width="1" fill="none" fill-rule="evenodd">
        <g id="prodact-card-wer_1-copy" transform="translate(-821.000000, -649.000000)">
            <g id="icon_crush" transform="translate(821.000000, 649.000000)">
                <g id="car" fill="#FFFFFF" fill-rule="nonzero">
                    <path d="M63.3040593,13.455289 L57.9397724,11.0150883 L53.2049682,3.49000029 C51.8365276,1.30881535 49.4280723,-0.0135280128 46.8417197,0.000104393092 L26.6709061,0.000104393092 C24.3308728,0.000104393092 22.1139991,1.07706446 20.690821,2.93107165 L14.5738917,10.9060291 L4.37900973,13.6870399 C1.79265711,14.395925 0,16.7543312 0,19.4262827 L0,23.3115184 C0,26.5969282 2.62740584,29.309777 5.92534753,29.309777 L6.80114948,29.309777 C7.85484869,33.3586015 12.0012235,35.7851697 16.0654919,34.7354745 C18.733951,34.0402218 20.827665,31.9680961 21.5118853,29.309777 L44.5016863,29.309777 C45.5553855,33.3586015 49.7017604,35.7851697 53.7660288,34.7354745 C56.4344878,34.0402218 58.5282019,31.9680961 59.2124221,29.309777 L60.8545508,29.309777 C64.1524925,29.309777 66.7798983,26.5969282 66.7798983,23.3115184 L66.7798983,18.8809865 C66.7935827,16.5498451 65.4251422,14.4231898 63.3040593,13.455289 Z M14.1496752,32.2271118 C11.4675317,32.2271118 9.29171126,30.0595593 9.29171126,27.3876077 C9.29171126,24.7156562 11.4675317,22.5481037 14.1496752,22.5481037 C16.8318186,22.5481037 19.0076391,24.7156562 19.0076391,27.3876077 C19.0213235,30.0459269 16.845503,32.2134794 14.1496752,32.2271118 Z M51.850212,32.2271118 C49.1680686,32.2271118 46.9922481,30.0595593 46.9922481,27.3876077 C46.9922481,24.7156562 49.1680686,22.5481037 51.850212,22.5481037 C54.5323555,22.5481037 56.7081759,24.7156562 56.7081759,27.3876077 C56.7218603,30.0459269 54.5460399,32.2134794 51.850212,32.2271118 Z M60.8545508,26.5832958 L59.4040038,26.5832958 C58.9524184,22.425412 55.1892069,19.4262827 51.0154633,19.8897845 C47.4712023,20.2714919 44.6795836,23.0661351 44.2964202,26.5832958 L21.7034669,26.5832958 C21.2518816,22.425412 17.4886701,19.4262827 13.3149264,19.8897845 C9.77066545,20.2714919 6.97904675,23.0661351 6.5958834,26.5832958 L5.91166313,26.5832958 C4.11900602,26.5832958 2.72319667,25.0973636 2.72319667,23.3115184 L2.72319667,19.4262827 C2.70951227,17.9676153 3.68110505,16.6998016 5.09059881,16.3044618 L15.7507506,13.4007593 C16.0381231,13.3189649 16.2981268,13.155376 16.4760241,12.9099927 L22.852957,4.58059276 C23.7698122,3.40820586 25.1793059,2.72658556 26.6709061,2.72658556 L46.8417197,2.72658556 C48.4838483,2.71295316 50.0301861,3.54452991 50.8923036,4.93503531 L55.8460584,12.8145659 C55.9829025,13.0463168 56.2018529,13.2235381 56.4344878,13.3325973 L62.1545693,15.9363868 C63.3040593,16.4680507 64.0430172,17.6131728 64.0293328,18.8809865 L64.0293328,23.3115184 L64.0430172,23.3115184 C64.0430172,25.0973636 62.6472079,26.5832958 60.8545508,26.5832958 Z" id="Shape"></path>
                </g>
                <path d="M25.6321337,28.62 L45.5432253,38.8952304 C45.6634748,38.9572858 45.7106504,39.1050732 45.648595,39.2253227 C45.6255877,39.2699058 45.5894487,39.3063515 45.5450617,39.3297349 L25.6321337,49.82 L41.618754,49.82 L22.2939459,39.4411457 C22.1747337,39.37712 22.1299963,39.2285763 22.1940221,39.1093642 C22.217586,39.0654896 22.2539606,39.0298375 22.298299,39.0071584 L42.6055824,28.62" id="Path-2" stroke="#FFFFFF" stroke-width="2.20512607"></path>
                <rect id="Rectangle-3" stroke="#FFFFFF" stroke-width="1.96011206" x="5.22005603" y="50.680056" width="57.3998879" height="3.33988794"></rect>
            </g>
        </g>
    </g>
</svg>