<svg xmlns="http://www.w3.org/2000/svg" width="44" height="44" viewBox="0 0 44 44"><path fill="#fd8469" d="M0 22a22 22 0 1 1 44 0 22 22 0 0 1-44 0z"/><path fill="#f1543f" d="M4 34a21.95 21.95 0 0 0 36.41 0z"/><path fill="#324a5e" d="M11 34v-2h22v2z"/><path fill="#2b3b4e" d="M26.2 31.99H17L18.9 23h5.4z"/><path fill="#fff" d="M39.41 20.71c-.07-.24-.1-.52-.1-.76 0-1.7-1.28-3.36-2.32-4.46a4.23 4.23 0 0 0-3.04-1.32H23.57c-1.59 0-3.14.45-4.52 1.28l-4.67 2.84c-3.74-8.17-5.96-7.3-6.15-7.23.14-.04 1.64-.1 4.9 7.47-11.58.76-8.85 6.99-8.85 6.99h3.77a2.75 2.75 0 0 1 5.43-.73c0 .24 0 .48-.07.73h19.81c-.03-.21-.07-.42-.07-.63a2.73 2.73 0 0 1 2.87-2.73 2.8 2.8 0 0 1 2.63 2.63c0 .24 0 .48-.07.73h.97c1-.83.21-3.77-.14-4.81zM8.23 11.06zm16.45 7.09l-7.67 1.07c-2.49.49-1.7-1.07-1.7-1.07l3.94-2.42a8.39 8.39 0 0 1 4.32-1.21h1.73zm1.56 0l.1-3.63h5.64l1.24 3.63zm8.09 0l-1.38-3.63h1.03a3.8 3.8 0 0 1 2.77 1.21 9.28 9.28 0 0 1 1.73 2.42z"/></svg>