<svg xmlns="http://www.w3.org/2000/svg" xmlns:xlink="http://www.w3.org/1999/xlink" width="33" height="33" viewBox="0 0 33 33"><defs><path id="hz72a" d="M1373.667 1111.3v-6.145l7.464 7.245h-6.331c-.626 0-1.133-.493-1.133-1.1zm-20.4 49.5h-4.534v-20.9h-2.266v20.9h-9.067v-14.862l9.762-7.37a1.08 1.08 0 0 0 .106-1.65l-1.289-1.248 2.25-1.455c.455-.294.628-.861.412-1.348l-1.473-3.353c3.777 2.176 6.094 6.122 6.099 10.386zm-34-20.9c.005-4.264 2.322-8.21 6.099-10.386l-1.473 3.353a1.082 1.082 0 0 0 .413 1.348l2.248 1.455-1.292 1.252a1.082 1.082 0 0 0 .105 1.65l9.756 7.366v14.862h-9.06v-20.9h-2.266v20.9h-4.53zm9.066-22v-10.945a10.373 10.373 0 0 0 4.534 1.045c.541 0 4.76-.053 7.533-1.635a5.829 5.829 0 0 0 3.8 2.633v8.902c0 1.822-1.522 3.3-3.4 3.3h-9.067c-1.877 0-3.4-1.478-3.4-3.3zm-3.4-5.5c0-.607.512-1.1 1.144-1.1v2.2c-.632 0-1.144-.493-1.144-1.1zm1.134-6.942v3.642a3.494 3.494 0 0 0-.794.098l-.807-3.13a1.067 1.067 0 0 1 .206-.945c.167-.195.4-.326.657-.37.236.246.483.481.738.705zm18.133-6.258c1.878 0 3.4 1.478 3.4 3.3v6.802a3.45 3.45 0 0 0-1.133-.202v-1.1c0-.607-.508-1.1-1.134-1.1-1.578-.09-2.945-1.096-3.457-2.548a1.122 1.122 0 0 0-.815-.722 1.157 1.157 0 0 0-1.062.292c-1.58 1.535-5.685 1.878-7.132 1.878-3.942-.005-7.285-2.814-7.853-6.6zm2.267 14.3v-2.2c.626 0 1.133.493 1.133 1.1 0 .607-.507 1.1-1.133 1.1zm-6.17 20.259l-2.416-1.76 2.834-3.44 1.076 1.568zm-4.03-.184l3.131 2.276-3.131 6.83-3.132-6.83zm-4.45-5.014l2.833 3.44-2.416 1.76-1.496-3.63zm7.85-5.161v2.915l-3.4 4.125-3.4-4.125v-2.915zm-10.707 11.185l-2.616-1.693 2.04-4.638c.355-.095.714-.179 1.082-.245l-.949 1.38a1.073 1.073 0 0 0-.113 1.02l4.986 11.43-5.62-4.243 1.36-1.32c.24-.232.36-.557.327-.886a1.095 1.095 0 0 0-.5-.806zm17.227-1.693l-2.616 1.693a1.082 1.082 0 0 0-.172 1.693l1.36 1.32-5.62 4.243 4.986-11.43a1.073 1.073 0 0 0-.113-1.02l-.945-1.382c.367.066.726.15 1.081.245zm38.481-20.17l-11.333-11a1.151 1.151 0 0 0-.802-.322h-20.4v2.2h19.267v7.7c0 1.822 1.522 3.3 3.4 3.3h7.933v38.5c0 1.822-1.522 3.3-3.4 3.3h-23.8v-16.5c-.011-7.464-5.933-13.666-13.6-14.244v-2.366c2.637-.526 4.53-2.777 4.534-5.39v-2.2c1.877 0 3.4-1.478 3.4-3.3v-9.9c-.004-3.036-2.539-5.496-5.667-5.5h-20.4c-.626 0-1.133.493-1.133 1.1 0 1.683.443 3.338 1.29 4.807-1.374.705-2.071 2.233-1.685 3.695l1.01 3.914a3.213 3.213 0 0 0-.23 3.413c.585 1.09 1.748 1.773 3.015 1.771v2.2c.003 2.612 1.896 4.864 4.533 5.39v2.367c-7.667.578-13.588 6.78-13.6 14.243v22c0 .607.507 1.1 1.133 1.1h36.267c.626 0 1.133-.493 1.133-1.1v-3.3h23.8c3.129-.004 5.663-2.464 5.667-5.5v-39.6c0-.292-.12-.571-.332-.778z"/><path id="hz72b" d="M1358 1134h3v2h-3z"/><path id="hz72c" d="M1365 1134h9v2h-9z"/><path id="hz72d" d="M1358 1139h16v2h-16z"/><path id="hz72e" d="M1369.517 1144.339a3.749 3.749 0 0 1-2.37 0A6.3 6.3 0 0 0 1365 1144v1.47c.413-.01.823.057 1.183.191 1.351.45 2.944.45 4.295 0a3.754 3.754 0 0 1 2.373 0c.661.231 1.4.347 2.149.337v-1.47a3.217 3.217 0 0 1-1.187-.192 7.023 7.023 0 0 0-4.296 0z"/><path id="hz72f" d="M1376.25 1126.16h-.674c-.21-1.903-1.957-3.274-3.894-3.062-1.645.174-2.941 1.453-3.12 3.061h-10.487c-.21-1.902-1.957-3.273-3.894-3.061-1.645.174-2.941 1.453-3.12 3.061h-.317c-.832 0-1.48-.68-1.48-1.496v-1.777a1.473 1.473 0 0 1 1.1-1.428l4.948-1.328a.62.62 0 0 0 .336-.225l2.96-3.81a2.26 2.26 0 0 1 1.773-.848h9.363a2.198 2.198 0 0 1 1.88 1.01l2.3 3.604a.623.623 0 0 0 .273.237l2.656 1.191c.533.244.876.767.87 1.347v2.027h.006c0 .817-.647 1.496-1.48 1.496zm-4.18 2.58c-1.246 0-2.256-.99-2.256-2.213 0-1.222 1.01-2.213 2.255-2.213 1.246 0 2.256.991 2.256 2.213.006 1.216-1.004 2.208-2.256 2.214zm-17.502 0c-1.245 0-2.255-.99-2.255-2.213 0-1.222 1.01-2.213 2.255-2.213 1.246 0 2.256.991 2.256 2.213.006 1.216-1.004 2.208-2.256 2.214zm22.818-8.585l-2.49-1.117-2.198-3.442a3.478 3.478 0 0 0-2.954-1.596h-9.363a3.517 3.517 0 0 0-2.776 1.34l-2.84 3.648-4.732 1.273a2.732 2.732 0 0 0-2.033 2.625v1.777a2.748 2.748 0 0 0 2.75 2.743h.407c.49 1.852 2.414 2.962 4.3 2.482 1.24-.318 2.211-1.266 2.529-2.482h10.672c.49 1.852 2.414 2.962 4.3 2.482 1.24-.318 2.211-1.266 2.529-2.482h.762c1.531 0 2.75-1.24 2.75-2.743v-2.027a2.714 2.714 0 0 0-1.613-2.481z"/></defs><g><g transform="translate(-1347 -1113)"><g><use fill="#3bb3f0" xlink:href="#hz72a"/></g><g><use fill="#3bb3f0" xlink:href="#hz72b"/></g><g><use fill="#3bb3f0" xlink:href="#hz72c"/></g><g><use fill="#3bb3f0" xlink:href="#hz72d"/></g><g><use fill="#3bb3f0" xlink:href="#hz72e"/></g><g><g><use fill="#3bb3f0" xlink:href="#hz72f"/><use fill="#fff" fill-opacity="0" stroke="#3bb3f0" stroke-miterlimit="50" xlink:href="#hz72f"/></g></g></g></g></svg>