<svg xmlns="http://www.w3.org/2000/svg" xmlns:xlink="http://www.w3.org/1999/xlink" width="39" height="57" viewBox="0 0 39 57"><defs><path id="3r90a" d="M1248.764 697h-21.586v-1.726c2.643-2.603 2.695-6.875.115-9.543a6.647 6.647 0 0 0-9.458-.116c-2.643 2.603-2.695 6.875-.115 9.543l.115.116V697h-3.668v-46h34.656zm-25.883-2h-.048c-2.393 0-4.333-2.015-4.333-4.5s1.94-4.5 4.333-4.5c2.394 0 4.334 2.015 4.334 4.5 0 2.466-1.912 4.473-4.286 4.5zm.792 5.158c-.396-.552-1.094-.617-1.558-.145a1.242 1.242 0 0 0-.122.145l-1.326 1.842v-5a5.233 5.233 0 0 0 4.333 0v5zm24.99-51.158h-34.326c-1.29 0-2.337 1.063-2.337 2.375v45.909c0 1.311 1.046 2.375 2.337 2.375h3.633v5.153c0 .656.523 1.188 1.169 1.188.341 0 .666-.152.888-.416l2.57-3.04 2.57 3.04c.42.499 1.157.557 1.648.131.26-.226.409-.555.409-.903v-5.153h21.44c1.29 0 2.336-1.064 2.336-2.375v-45.909c0-1.312-1.046-2.375-2.337-2.375z"/></defs><g><g transform="translate(-1212 -649)"><use fill="#fff" xlink:href="#3r90a"/></g></g></svg>