<?xml version="1.0" encoding="UTF-8"?>
<svg width="52px" height="48px" viewBox="0 0 52 48" version="1.1" xmlns="http://www.w3.org/2000/svg" xmlns:xlink="http://www.w3.org/1999/xlink">
    <!-- Generator: Sketch 51.3 (57544) - http://www.bohemiancoding.com/sketch -->
    <title>social-header</title>
    <desc>Created with Sketch.</desc>
    <defs></defs>
    <g id="Page-1" stroke="none" stroke-width="1" fill="none" fill-rule="evenodd">
        <g id="Facebook" transform="translate(-796.000000, -213.000000)" fill-rule="nonzero">
            <g id="social-header" transform="translate(796.000000, 213.000000)">
                <path d="M31,10.5 C31,4.70101013 35.7010101,1.06525716e-15 41.5,0 C47.2989899,-1.06525716e-15 52,4.70101013 52,10.5 C52,16.2989899 47.2989899,21 41.5,21 C35.7010101,21 31,16.2989899 31,10.5 Z" id="Shape" fill="#3B5998"></path>
                <path d="M44.02,10.79 L42.16,10.79 L42.16,17.6 L39.34,17.6 L39.34,10.79 L38,10.79 L38,8.39 L39.34,8.39 L39.34,6.84 C39.34,5.74 39.87,4 42.18,4 L44.27,4.01 L44.27,6.33 L42.76,6.33 C42.51,6.33 42.16,6.46 42.16,6.99 L42.16,8.4 L44.27,8.4 L44.02,10.79 Z" id="Shape" fill="#FFFFFF"></path>
                <g id="telegram">
                    <circle id="Oval" fill="#41B4E6" cx="10.499877" cy="10.5" r="10.499877"></circle>
                    <polygon id="Shape" fill="#FFFFFF" points="9.48026953 12.0298828 14.2254082 15.6124746 16.6206797 5.3878125 4.3792793 10.2030059 8.10419531 11.4367969 14.902248 6.87684375"></polygon>
                    <polygon id="Shape" fill="#D2D2D7" points="8.10419531 11.4367969 9.12437695 15.1078594 9.48026953 12.0298828 14.902248 6.87684375"></polygon>
                    <polygon id="Shape" fill="#B9B9BE" points="11.022457 13.1942344 9.12437695 15.1078594 9.48026953 12.0298828"></polygon>
                </g>
                <path d="M10.48,27 C14.2995822,26.8838095 17.8796361,28.8558297 19.8227114,32.1462958 C21.7657867,35.4367619 21.7638357,39.5240159 19.81762,42.8126256 C17.8714044,46.1012352 14.2894696,48.0698369 10.47,47.95 C4.81085373,47.7724428 0.315949612,43.1320825 0.318652204,37.4701521 C0.321354796,31.8082217 4.82068681,27.1721546 10.48,27 Z" id="Shape" fill="#C4302B"></path>
                <path d="M9.87,35.32 C9.67887794,35.1678858 9.57126724,34.9341108 9.58,34.69 L9.58,33.1 C9.58,32.86 9.68,32.67 9.88,32.53 C10.08,32.39 10.34,32.32 10.67,32.32 C10.97,32.32 11.22,32.39 11.41,32.54 C11.5957867,32.6742012 11.7041111,32.8908499 11.7,33.12 L11.7,34.71 C11.7,34.97 11.61,35.17 11.42,35.33 C10.9576252,35.6687316 10.3279658,35.6646693 9.87,35.32 Z M10.29,33.18 L10.29,34.69 C10.29,34.76 10.32,34.82 10.38,34.86 C10.44,34.91 10.52,34.93 10.63,34.93 C10.74,34.93 10.83,34.9 10.89,34.86 C10.96,34.82 10.99,34.76 10.99,34.69 L10.99,33.18 C10.99,33.12 10.96,33.07 10.89,33.03 C10.8107459,32.9858287 10.7205956,32.9650248 10.63,32.97 C10.53,32.97 10.45,32.99 10.39,33.03 C10.32,33.07 10.29,33.12 10.29,33.18 Z M12.51,35.4 C12.4284241,35.2757812 12.3897873,35.1282587 12.4,34.98 L12.4,32.32 L13.02,32.32 L13.02,34.76 C13.02,34.83 13.03,34.89 13.06,34.92 C13.08,34.96 13.12,34.97 13.18,34.97 C13.23,34.97 13.28,34.95 13.35,34.9 C13.42,34.86 13.49,34.8 13.54,34.73 L13.54,32.32 L14.16,32.32 L14.16,35.5 L13.54,35.5 L13.54,35.15 C13.43,35.28 13.31,35.38 13.19,35.44 C13.06,35.51 12.95,35.58 12.83,35.58 C12.7004704,35.5753882 12.5812043,35.5083011 12.51,35.4 Z M16.78,38.96 L16.78,40.71 C16.78,41.85 15.82,42.78 14.63,42.78 L7.15,42.78 C6.59036429,42.7907098 6.04940544,42.5786144 5.64618001,42.1903927 C5.24295459,41.802171 5.01050868,41.2696395 5,40.71 L5,38.96 C5.01048411,38.4012417 5.2432554,37.869709 5.64678236,37.4830738 C6.05030932,37.0964387 6.59130415,36.8865955 7.15,36.9 L14.63,36.9 C15.1886959,36.8865955 15.7296907,37.0964387 16.1332176,37.4830738 C16.5367446,37.869709 16.7695159,38.4012417 16.78,38.96 Z M8.26,38.2 L6.3,38.2 L6.3,38.67 L6.96,38.67 L6.96,41.41 L7.6,41.41 L7.6,38.67 L8.26,38.67 L8.26,38.2 Z M10.24,38.86 L9.55,38.86 L9.55,40.82 C9.48,40.88 9.41,40.92 9.33,40.96 C9.27256381,40.995319 9.20730349,41.0159275 9.14,41.02 C9.08864245,41.0219404 9.038509,41.0040356 9,40.97 C8.97,40.95 8.96,40.9 8.96,40.84 L8.96,38.86 L8.27,38.86 L8.27,41.02 C8.27,41.18 8.31,41.29 8.39,41.37 C8.47,41.44 8.59,41.48 8.75,41.48 C9.04528978,41.4673761 9.32746333,41.3545067 9.55,41.16 L9.55,41.45 L10.24,41.45 L10.24,38.86 Z M12.85,39.62 C12.859525,39.4556667 12.7975417,39.2952393 12.68,39.18 C12.5380511,39.0681728 12.3604995,39.0113563 12.18,39.02 C12.08,39.02 11.97,39.04 11.87,39.08 C11.77,39.12 11.67,39.18 11.58,39.25 L11.58,38.2 L10.89,38.2 L10.89,41.45 L11.58,41.45 L11.58,41.26 C11.67,41.34 11.76,41.39 11.87,41.43 C11.97,41.46 12.09,41.48 12.22,41.48 C12.43,41.48 12.58,41.43 12.69,41.34 C12.7982059,41.2399347 12.8567524,41.0972276 12.85,40.95 L12.85,39.62 Z M15.47,39.59 C15.47,39.36 15.39,39.17 15.23,39.05 C15.06,38.92 14.83,38.86 14.52,38.86 C14.23,38.86 13.99,38.93 13.8,39.06 C13.6232165,39.1781038 13.5179253,39.3774051 13.52,39.59 L13.52,40.7 C13.52,40.94 13.6,41.13 13.77,41.27 C13.94,41.4 14.18,41.47 14.48,41.47 C14.81,41.47 15.05,41.41 15.22,41.28 C15.39,41.15 15.47,40.96 15.47,40.7 L15.47,40.58 L14.79,40.58 L14.79,40.69 C14.79,40.84 14.77,40.93 14.72,40.97 C14.68,41.02 14.6,41.04 14.49,41.04 C14.38,41.04 14.31,41.01 14.26,40.96 C14.22,40.91 14.2,40.82 14.2,40.69 L14.2,40.22 L15.47,40.22 L15.47,39.59 Z M7.89,33.77 L6.96,31 L7.75,31 L8.26,32.83 L8.31,32.83 L8.79,31 L9.58,31 L8.67,33.68 L8.67,35.59 L7.89,35.59 L7.89,33.77 Z M11.86,39.4 L11.72,39.43 L11.58,39.5 L11.58,40.99 C11.63,41.03 11.69,41.06 11.74,41.08 L11.9,41.1 C11.99,41.1 12.05,41.09 12.09,41.05 C12.12,41.02 12.14,40.96 12.14,40.89 L12.14,39.65 C12.14,39.57 12.12,39.51 12.07,39.47 C12.010147,39.4231849 11.9359715,39.3984597 11.86,39.4 Z" id="Shape" fill="#FFFFFF"></path>
                <path d="M14.3,39 C14.19,39 14.11,39.02 14.07,39.07 C14.02,39.11 14,39.19 14,39.29 L14,39.54 L14.59,39.54 L14.59,39.29 C14.59,39.19 14.56,39.11 14.52,39.07 C14.47,39.02 14.4,39 14.3,39 Z" id="Shape" fill="#FFFFFF"></path>
                <path d="M44.05,33 L37.81,33 C36.81,33 36,33.81 36,34.81 L36,41.05 C36,42.05 36.81,42.86 37.81,42.86 L44.05,42.86 C45.05,42.86 45.86,42.05 45.86,41.05 L45.86,34.81 C45.86,33.81 45.05,33 44.05,33 Z M40.93,41.17 C39.1350746,41.17 37.68,39.7149254 37.68,37.92 C37.68,36.1250746 39.1350746,34.67 40.93,34.67 C42.7249254,34.67 44.18,36.1250746 44.18,37.92 C44.18,39.7149254 42.7249254,41.17 40.93,41.17 Z M44.28,35.35 C43.8602636,35.35 43.52,35.0097364 43.52,34.59 C43.52,34.1702636 43.8602636,33.83 44.28,33.83 C44.6997364,33.83 45.04,34.1702636 45.04,34.59 C45.04,35.01 44.7,35.35 44.28,35.35 Z" id="Shape" fill="#6A453B"></path>
                <path d="M40.87,36 C39.8344661,36 38.995,36.8394661 38.995,37.875 C38.995,38.9105339 39.8344661,39.75 40.87,39.75 C41.9055339,39.75 42.745,38.9105339 42.745,37.875 C42.745,36.8394661 41.9055339,36 40.87,36 Z" id="Shape" fill="#6A453B"></path>
                <path d="M40.47,27 C36.7276429,26.9999999 33.2695622,28.9965236 31.3983836,32.2374999 C29.527205,35.4784762 29.527205,39.4715238 31.3983836,42.7125001 C33.2695622,45.9534764 36.7276429,47.9500001 40.47,47.95 C46.2551827,47.9499999 50.9449998,43.2601827 50.9449998,37.475 C50.9449998,31.6898173 46.2551827,27.0000001 40.47,27 Z M46.77,40.62 C46.77,42.3762655 45.3462655,43.8 43.59,43.8 L37.35,43.8 C35.5960135,43.7945102 34.1754898,42.3739865 34.17,40.62 L34.17,34.38 C34.1754898,32.6260135 35.5960135,31.2054898 37.35,31.2 L43.59,31.2 C45.3462655,31.2 46.77,32.6237345 46.77,34.38 L46.77,40.62 Z" id="Shape" fill="#6A453B"></path>
            </g>
        </g>
    </g>
</svg>