<svg xmlns="http://www.w3.org/2000/svg" width="27" height="27" viewBox="0 0 27 27"><path fill="#59aae7" d="M0 13.5a13.5 13.5 0 1 1 27 0 13.5 13.5 0 0 1-27 0z"/><path fill="#fcfcfc" d="M8.44 16.04l-4.35-2.17c-.12-.06-.12-.23 0-.3l16.54-8.55c.12-.06.26.04.23.18l-2.84 14.23c-.02.11-.13.16-.23.12l-3.87-1.66c-.04-.02-.1-.01-.14.01l-5 2.78c-.11.06-.25-.02-.25-.14v-4.35a.16.16 0 0 0-.09-.15z"/><path fill="#d8d7da" d="M11.03 17.74L11 13.39c0-.02.01-.05.04-.06l7.06-4.32c.08-.05.16.06.1.13l-5.38 5.41-.01.02-.92 1.84-.71 1.37c-.04.07-.15.04-.15-.04z"/></svg>