<svg xmlns="http://www.w3.org/2000/svg" width="41" height="31" viewBox="0 0 41 31"><path fill="#d8362a" d="M40.58 6.67s-.43-3.02-1.63-4.35C37.39.56 35.63.56 34.85.49 29.12.07 20.5 0 20.5 0S11.88.07 6.15.49c-.78.07-2.54.14-4.1 1.83C.78 3.65.42 6.67.42 6.67S0 10.24 0 13.82v3.3c0 3.58.42 7.09.42 7.09s.43 3.02 1.63 4.35c1.56 1.75 3.61 1.68 4.52 1.89 3.26.35 13.93.42 13.93.42s8.62 0 14.35-.49c.78-.07 2.54-.14 4.1-1.82 1.2-1.33 1.63-4.35 1.63-4.35s.42-3.58.42-7.09v-3.3c0-3.58-.42-7.15-.42-7.15"/><path fill="#fff" d="M16 8v15.23l13.43-7.44z"/></svg>