<svg xmlns="http://www.w3.org/2000/svg" width="101" height="101" viewBox="0 0 101 101"><path fill="#ffd05b" d="M0 50.5a50.5 50.5 0 1 1 101 0 50.5 50.5 0 0 1-101 0z"/><path fill="#fff" d="M81.18 23H27.41A3.38 3.38 0 0 0 24 26.41v41.73c0 1.9 1.5 3.4 3.41 3.4h53.77c1.9 0 3.41-1.5 3.41-3.4V26.33A3.37 3.37 0 0 0 81.18 23z"/><path fill="#ff7058" d="M81.18 21H27.41A3.38 3.38 0 0 0 24 24.41v8.07h60.59v-8.07A3.43 3.43 0 0 0 81.18 21z"/><path fill="#e6e9ee" d="M47 41v-5h5v5zm9 0v-5h5v5zm10 0v-5h5v5zm-29 9v-5h5v5zm10 0v-5h5v5zm9 0v-5h5v5zm10 0v-5h5v5zm-29 9v-5h5v5zm10 0v-5h5v5zm9 0v-5h5v5zm10 0v-5h5v5zm-29 9v-5h5v5zm10 0v-5h5v5zm9 0v-5h5v5z"/><path fill="#84dbff" d="M34.22 46a18.22 18.22 0 0 0 0 36.43 18.22 18.22 0 0 0 0-36.43z"/><path fill="#fff" d="M34.1 50C26.34 50 20 56.34 20 64.1s6.34 14.09 14.1 14.09 14.09-6.33 14.09-14.09A14.17 14.17 0 0 0 34.1 50z"/><path fill="#2b3b4e" d="M33.64 55.48l-.63 10.13c-.08.64.39 1.27 1.11 1.27.71 0 1.19-.56 1.19-1.19l-.64-10.21c0-.24-.24-.48-.47-.48-.32.08-.48.24-.56.48z"/><path fill="#324a5e" d="M41.3 62l-9.26.63c-.64.08-1.11.56-1.03 1.11.08.64.63 1.03 1.27.95l9.18-1.82c.24-.08.4-.24.32-.47-.08-.24-.24-.4-.48-.4z"/><path fill="#ff7058" d="M33 63.5a1.5 1.5 0 1 1 3 0 1.5 1.5 0 0 1-3 0z"/><path fill="#e6e9ee" d="M33 52a1 1 0 1 1 2 0 1 1 0 0 1-2 0zm0 23a1 1 0 1 1 2 0 1 1 0 0 1-2 0zm12-12a1 1 0 1 1 2 0 1 1 0 0 1-2 0zm-23 0a1 1 0 1 1 2 0 1 1 0 0 1-2 0zm19-8a1 1 0 1 1 2 0 1 1 0 0 1-2 0zM25 72a1 1 0 1 1 2 0 1 1 0 0 1-2 0zm16 0a1 1 0 1 1 2 0 1 1 0 0 1-2 0zM25 55a1 1 0 1 1 2 0 1 1 0 0 1-2 0z"/><path fill="#fff" d="M67 27.5a2.5 2.5 0 1 1 5 0 2.5 2.5 0 0 1-5 0zm-31 0a2.5 2.5 0 1 1 5 0 2.5 2.5 0 0 1-5 0z"/></svg>