<svg xmlns="http://www.w3.org/2000/svg" width="15" height="14" viewBox="0 0 15 14"><path fill="#fff" d="M13.25.87A1.27 1.27 0 0 0 12.08 0H2.92c-.59 0-1 .35-1.17.87L0 6.11v6.98c0 .53.33.88.83.88h.84c.5 0 .83-.35.83-.88v-.87h10v.87c0 .53.33.88.83.88h.84c.5 0 .83-.35.83-.88V6.11zM2.92 9.6c-.67 0-1.25-.61-1.25-1.31 0-.7.58-1.31 1.25-1.31.66 0 1.25.61 1.25 1.31 0 .7-.59 1.31-1.25 1.31zm9.16 0c-.66 0-1.25-.61-1.25-1.31 0-.7.59-1.31 1.25-1.31.67 0 1.25.61 1.25 1.31 0 .7-.58 1.31-1.25 1.31zM1.67 5.24l1.25-3.93h9.16l1.25 3.93z"/></svg>