<svg xmlns="http://www.w3.org/2000/svg" width="19" height="18" viewBox="0 0 19 18"><path fill="#fff" d="M17.97 6.92c-.11-.97-2.73 0-2.73 0l-.15 1.38c-.06-.03-.11-.07-.18-.09l-.66-2.88c-.24-1.37-1.27-2.38-2.78-2.33H7.6c-.02.16-.06.32-.11.47h4.24c.88 0 1.69.57 1.91 1.5l.71 2.84H6v2.77h5.09v.62H6v.18h5.04V12H6v2.32h5.44v1.48c0 .6.74 1.08 1.65 1.08.92 0 1.66-.48 1.66-1.08v-1.65c.78-.29 1.32-.94 1.32-1.69V9.83c0-.59-.33-1.1-.84-1.45l2.74-.14s.11-.35 0-1.32zm-3.14 5.03h-2.98v-1.42h2.98zM5 13v-1zm1-1v-1zm.42-9.22A3.21 3.21 0 0 0 4.8 0v2.57l-1.59.92-1.6-.92V0a3.2 3.2 0 0 0 .15 5.64v10.58a1.51 1.51 0 1 0 3.03 0L4.78 5.57a3.21 3.21 0 0 0 1.64-2.79z"/></svg>