<svg xmlns="http://www.w3.org/2000/svg" width="101" height="101" viewBox="0 0 101 101"><path fill="#80e2f2" d="M0 50.24a50.25 50.25 0 1 0 100.5 0 50.25 50.25 0 0 0-100.5 0z"/><path fill="#7cb142" d="M39.77 51.06l-2.54-1.76-1.45-.66-.78-.37c16.82-9.6 41.48-15.7 60.63-19.27a50.04 50.04 0 0 1 4.61 24.44 487.9 487.9 0 0 0-55.53-2.54z"/><path fill="#9bcb64" d="M100.07 52.21c-3.94.36-7.02-.11-11.33-.59-3.27-.37-6.58 1.23-9.85.86-2.73-.32-5.33-1.77-8.05-1.43-2.15.27-4.06 1.62-6.22 1.78-2.65.18-5.12-1.47-7.77-1.53-3.27-.08-6.17 2.26-9.43 2.5-2.68.2-5.32-1.05-8-.83-2.15.17-4.11 1.27-6.22 1.68-3.55.69-7.16-.57-10.76-.67-3.2-.1-7.87 1.86-11.06 2.02-4.23.23-7.69-1.53-11.38-.55.11 1.02.3 1.71.56 2.8h.03a50.12 50.12 0 0 0 44.74 41.39l.19.02.9.07.4.02.77.05.5.02.69.02.79.01.39.01.06-.01 1.13-.01h.18l1.05-.04.3-.02.94-.06.44-.03.61-.06a50.12 50.12 0 0 0 44.59-40.9c.48-1.87.48-2.46.72-5.44h.06l.02-.56v-.32z"/><path fill="#add37f" d="M96.18 70.6c-8.3-1.56-16.61-4.75-24.99-4.11-6.02.46-11.75 2.88-17.75 3.46-12.68 1.23-25.32-5.78-37.85-3.48-3.82.7-7.73 2.26-11.59 3.3a50.13 50.13 0 0 0 41.63 30.65l.19.02.9.07.4.02.76.05.5.02.69.02.8.01h.45l1.12-.01h.18l1.06-.05.3-.01.94-.06.44-.03.61-.06A50.12 50.12 0 0 0 96.18 70.6z"/><path fill="#9bcb64" d="M80.46 85.09s-14.02.15-33.45-6.01c-8.9-2.83-17.99-5.48-27.31-5.03-4.27.2-8.5.85-12.7 1.74a50.1 50.1 0 0 0 38.44 24.3l.19.02.9.07.4.02.77.05.5.02.69.02.79.01.39.01.06-.01 1.13-.01h.18l1.05-.04.3-.02.94-.06.44-.03.61-.06a49.83 49.83 0 0 0 25.68-10.04z"/><path fill="#add37f" d="M82.33 88.16c-10.11-1.26-20.27-2.93-30.14-4.18-6.9-.87-13.92-1.47-20.8-.42-4.94.76-9.7 2.36-14.39 4.11a49.85 49.85 0 0 0 28.31 12.15l.19.02.9.07.4.03.77.04.5.02.68.02a21.6 21.6 0 0 0 1.19.02H50l1.13-.02h.18l1.05-.04.3-.01.94-.07.44-.03.61-.05a49.91 49.91 0 0 0 27.68-11.66z"/><path fill="#9bcb64" d="M1.85 36l.26.07 2.12.53c1.41.37 2.82.7 4.23 1.09l4.25 1.29 2.12.65 2.09.71 4.17 1.44 4.11 1.59 2.06.79 2.03.86 4.06 1.72 1.8.83.78.37 1.45.66 4.17 1.7-3.09.11-3.2.11-2.53.14-.67.04-6.42.38c-2.02.15-4 .35-6 .53l-.29.03-3.14.29-.78.06-.85.1-1.57.19c-4.2.51-8.42.95-12.57 1.6l-.25.04A50.02 50.02 0 0 1 0 49.55C0 44.86.65 40.31 1.85 36z"/><path fill="#747474" d="M0 54.81l.25-.04c4.15-.65 8.37-1.09 12.57-1.6l1.57-.19.84-.1.79-.07 3.14-.28.29-.03c2-.18 3.98-.38 6-.53l6.42-.38.67-.04 2.53-.15 3.2-.1 6.4-.22 6.39-.05 3.21-.03 3.2.05 6.39.09 4.12.15 2.31.09 3.15.11 3.19.19 6.37.39 6.34.51c2.12.16 4.22.37 6.33.59l4.53.46c-.3 4.6-1.18 9.35-3.05 14.36l-1.31-.28c-2.78-.61-5.62-1.12-8.45-1.68-2.85-.5-5.72-1-8.6-1.47a481.13 481.13 0 0 0-34.24-3.7 649.92 649.92 0 0 0-30.17-1.59c-4.44-.11-8.51-.18-12.12-.2l-1.71-.01c-.24-1.4-.43-2.82-.55-4.25z"/><path fill="#ffed58" d="M4.79 54.47c-1.6.15-3.19.32-4.79.51l.15 1.34a257 257 0 0 1 4.77-.5zm90.51 3.78l-.26 1.33.44.09c1.16.23 2.32.46 3.47.71l.3-1.32c-1.32-.28-2.63-.55-3.95-.81zm-5.34-.98c-2.23-.39-4.46-.74-6.7-1.07l-.19 1.34.31.04c2.12.32 4.24.66 6.35 1.02zm-12.08-1.81c-2.24-.28-4.49-.54-6.74-.77l-.13 1.35c2.24.23 4.47.49 6.71.77zm-12.14-1.28c-2.25-.19-4.5-.35-6.76-.5l-.09 1.35c2.25.15 4.5.31 6.74.5zm-12.18-.8c-2.26-.1-4.51-.19-6.77-.25l-.04 1.35c2.25.07 4.5.15 6.75.25zm-12.2-.36c-2.26-.02-4.52-.03-6.78-.01l.01 1.35c2.25-.01 4.51-.01 6.76.02zm-12.2.07a41.53 41.53 0 0 0-6.78.21l.06 1.35c2.37-.29 4.95-.3 6.75-.21zm-12.12 1.82c-2.33.06-4.68.12-6.74.45l-.1-1.35h.04c2.1-.33 4.32-.5 6.72-.45z"/><path fill="#fff" d="M27.87 12.47c.61 0 1.19.15 1.7.4a3.06 3.06 0 0 1 5.11 1.47c.72.22 1.3.76 1.56 1.46l.27-.01a2.41 2.41 0 1 1-1.15 4.53 2.42 2.42 0 0 1-4.03 1.02 2.41 2.41 0 0 1-3.36.07 2.42 2.42 0 0 1-3.48.09 2.87 2.87 0 1 1-.36-5.67 3.76 3.76 0 0 1 3.74-3.36z"/><path fill="#ff0" d="M38 17.5a8.5 8.5 0 1 1 17 0 8.5 8.5 0 0 1-17 0z"/><path fill="#fff" d="M55.11 13.49a4 4 0 0 1 1.76.41 3.17 3.17 0 0 1 5.29 1.52c.74.23 1.34.79 1.61 1.51l.28-.01a2.49 2.49 0 1 1-1.19 4.69 2.5 2.5 0 0 1-4.17 1.06 2.5 2.5 0 0 1-3.48.06 2.52 2.52 0 0 1-3.6.1 2.98 2.98 0 1 1-.37-5.87 3.9 3.9 0 0 1 3.87-3.47z"/><path fill="#9bcb64" d="M20.64 36.44c.02.1-.07.19-.09.21.16-.14.24.03.24.03.25.04-.01.23-.01.23-.09.04-.14-.06-.14-.06-.23.12-.1.18-.1.18.16-.04.06.11.06.11l-.1.01-.12.07v.04l.1-.01.01.07-.11.05.03.09c.13.18-.3.26-.3.26-.07.55-.58.35-.7.3-.09.04-.18.07-.29.09a1 1 0 0 1-.7-.18.87.87 0 0 1-.32-.01c-.17.02-.1-.23-.1-.23-.14.28-.33.03-.33.03-.19-.2.04-.32.04-.32-.11-.12.04-.22.04-.22-.29-.05-.36-.2-.37-.29a2.34 2.34 0 0 1-.28-.11 2.43 2.43 0 0 1-2.46-.21c-.38.08-.78-.03-.78-.03-.43.04-.26-.58-.26-.58-.23.48-.53.34-.7.21.03.15-.32.22-.32.22-.07.54-.58.35-.7.29a.75.75 0 0 1-.29.09.94.94 0 0 1-.7-.17c-.15.03-.32-.02-.32-.02-.17.02-.1-.23-.1-.23-.14.28-.34.04-.34.04-.18-.2.05-.32.05-.32-.11-.13.04-.23.04-.23-.43-.08-.37-.37-.37-.37-.2-.25 0-.47 0-.47a.17.17 0 0 1-.06-.06c-.24.02-.47-.05-.66-.18a.719.719 0 0 1-.31-.02c-.18.02-.11-.23-.11-.23-.13.28-.33.04-.33.04-.19-.21.04-.33.04-.33-.11-.12.04-.22.04-.22-.43-.08-.37-.37-.37-.37-.2-.26-.01-.48-.01-.48-.17-.14-.01-.28-.01-.28-.05-.16.19-.16.19-.16-.24-.46.18-.51.18-.51.08-.22.27-.08.27-.08.1-.25.43-.07.43-.07-.1-.21.22-.21.22-.21a.23.23 0 0 1 .16-.02v-.05c-.19-.25 0-.47 0-.47-.17-.14-.01-.28-.01-.28-.03-.07 0-.11.05-.13-.19-.45.11-.79.11-.79-.35-.29-.03-.58-.03-.58-.11-.36.39-.35.39-.35-.5-.96.39-1.06.39-1.06.16-.47.56-.19.56-.19.21-.51.91-.12.91-.12-.21-.44.45-.44.45-.44.44-.25.75.27.75.27.26-.34.48-.46.65-.46-.15-.48.34-.54.34-.54.11-.31.37-.12.37-.12.14-.34.61-.09.61-.09-.14-.29.3-.29.3-.29.3-.17.5.18.5.18.53-.68.78-.03.78-.03.89-.44 1.04.38 1.04.38.18-.23.42.01.65.34.16.22.06.43-.03.54.16.08.25.24.25.24.69-.9 1.03-.05 1.03-.05 1.17-.58 1.36.51 1.36.51.24-.3.56.01.87.45.31.44-.15.82-.15.82.33.28-.16.47-.16.47.26.25 0 .5-.07.56.31-.25.46.05.46.05.46.08-.02.44-.02.44-.17.07-.27-.11-.27-.11-.23.11-.27.2-.25.25.57-.13.67.45.67.45.17-.21.39 0 .6.31.21.3-.1.55-.1.55.22.2-.12.33-.12.33.18.17 0 .34-.04.38.21-.17.32.04.32.04.31.05-.02.3-.02.3-.12.04-.19-.08-.19-.08a.4.4 0 0 0-.15.11c.21.08.26.34.26.34.13-.17.3 0 .47.24.16.24-.08.44-.08.44.17.16-.09.26-.09.26.14.13 0 .27-.04.3.17-.14.25.03.25.03.25.04-.01.24-.01.24-.09.03-.15-.06-.15-.06-.23.11-.1.17-.1.17.17-.04.07.11.07.11l-.1.01-.13.07.01.05.09-.02.01.08-.11.05.04.08c.12.18-.31.27-.31.27-.07.55-.58.35-.7.3a.96.96 0 0 1-.29.08.98.98 0 0 1-.71-.17z"/><path fill="#4e342e" d="M15.11 45.54s-.04-.26.03-1.15l-.25-2.88s-.05-1.06.09-1.36c0 0 2.07-2.02 2.49-2.13 0 0 .3-2.64.68-2.69l-.37-.22s-.34 2.49-.59 2.87c0 0-.95-3.6-.81-3.98l-.13.11s.45 3.59.36 3.84l-.61.63s-.21.64-.34.35c0 0-1.17-.72-.59-4.47l-.47-.31-.39 2.48s.27 0 .15.62c0 0 .48 1.5.4 1.65 0 0-.11.71-.42.5l-.66-1.55s-.55-2.21-.18-2.55l-.14-.18s-.24 1.1-.05 1.9c0 0-1-1.11-1.31-1.11l.01.2s.19-.39 1.23 1.12c0 0 .71 2.01.73 2.4 0 0-.08 1.2-.03 1.42 0 0 .62 3.21-.4 4.17z"/><path fill="#bbb" d="M25.24 49.62a1.28 1.28 0 0 1-1.37 1.22l-.98-.05-.07-.01c-.28-.78-.56-1.56-.82-2.34a1.3 1.3 0 0 1 1.05-.44l.98.06a1.3 1.3 0 0 1 1.23 1.37z"/><path fill="#f3501e" d="M23 47.91c4.92-2.45 17.25-9.59 28.43-5.84 0 0 2.39.71 6.06 4.12 0 0 21.18.03 24.68 6.7 0 0-2.26 3.37-18.08 3.27 0 0-25.6-1.2-32.23-1.75 0 0-2.06.07-4.76-1.83-1.23-.87-2.51-1.76-3.4-2.53l-.7-2.14z"/><path fill="#333" d="M72.44 55.11c.2-.06.9-.04.9-.1-.05-2.42-2.51-4.84-5.33-5A5.66 5.66 0 0 0 62 55.37l10.47.62z"/><path fill="#424242" d="M63.01 55.52a4.8 4.8 0 1 0 9.59.55 4.8 4.8 0 0 0-9.59-.55z"/><path fill="#fff" d="M64.01 55.45a3.66 3.66 0 1 0 7.3.43 3.66 3.66 0 0 0-7.3-.43z"/><path fill="#bbb" d="M65 55.75a2.92 2.92 0 1 0 5.82.32 2.92 2.92 0 0 0-5.82-.32zM39.59 45.03L37.96 41c-3.7.83-7.13 2.22-9.96 3.55 7.88 1.1 11.59.48 11.59.48zM41 42.29s2.15 4.19 5.15 4.37c0 0 7.16.88 10.85-.56-2.98-2.76-5.1-3.74-5.79-4.01-3.44-.09-10.09-.21-10.21.2z"/><path fill="#333" d="M47.79 48.53a.4.4 0 0 1-.42.38l-1.99-.11a.4.4 0 0 1-.38-.42.4.4 0 0 1 .42-.38l1.99.11c.22.02.39.2.38.42zm-5.36 5.99c.2-.05.9.03.9-.02.16-2.42-2.09-5.04-4.89-5.44A5.65 5.65 0 0 0 32 53.89l10.38 1.51z"/><path fill="#424242" d="M33.05 54.12a4.8 4.8 0 1 0 9.5 1.35 4.8 4.8 0 0 0-9.5-1.35z"/><path fill="#fff" d="M34.04 54.14a3.66 3.66 0 1 0 4.14-3.1c-2-.29-3.86 1.1-4.14 3.1z"/><path fill="#bbb" d="M34.03 54.5a2.92 2.92 0 1 0 5.78.82 2.92 2.92 0 0 0-5.78-.82z"/></svg>