<svg xmlns="http://www.w3.org/2000/svg" width="101" height="101" viewBox="0 0 101 101"><path fill="#ff5b62" d="M0 50.5a50.5 50.5 0 1 1 101 0 50.5 50.5 0 0 1-101 0z"/><path fill="#fed298" d="M16.85 32l16.76 8.33s12.37-4 14.29-3.38c.19.06.5.19.92.36v.01a671.73 671.73 0 0 1 16.28 7.55l-3.54-.22c1.44 1.85 3.45 4.27 4.59 4.98 1.92 1.19-2.66 4.58-6.5 2.11-3.84-2.48-4.85-5.49-4.85-5.49l-1.9.19 13.33 12.24 2.12 2.54c1.83 2.19-.45 5.36-3.44 4.4.05.03-.12-.02-.08.11.18.46.52 1.56.21 2.1-1.1 1.9-2.75 3.36-6.24.7.85.65 1.37 2.16.78 3.05a4.62 4.62 0 0 1-2.65 2.03c-1.01.31-2.54-.66-3.39-1.3.85.64 1.25 2.17.69 3.07-.7 1.11-2.9 2.73-4.3 1.67l-4.39-3.35s-10.69-10.35-14-13.1c-3.3-2.76-7.79-8.37-7.79-8.37L4 41.28 16.85 32z"/><path fill="#0f7986" d="M0 45.76l14.46 9.66 15.28-20.06L11.35 18A50.06 50.06 0 0 0 0 45.76z"/><path fill="#fff" d="M29.88 36L17 52.91l2.47 1.88 12.88-16.91z"/><path fill="#f0ba7d" d="M83.69 32l-16.76 8.33c-1.34.67-6.15-2.49-10.11-2.97-2.87-.35-6.34.77-6.13.87l8.98 4.15s4.38 6.06 6.3 7.25c1.92 1.19-2.66 4.58-6.5 2.11s-4.85-5.49-4.85-5.49l-7.94.81L31.36 60.6c-2.12 1.87-1.47 2.85-.04 4.68.65.83 3.04.55 4.05.17-2.32 1.76 1.02 6.3 4.3 3.81-1.98 1.51.86 6.83 4.83 3.81-1.98 2.67 2.06 4.61 3.76 4.13l1.23-.35-.32-.24c-.1 0-3.31-3.3-3.51-3.7-1.1-2.26 1.8-5.31 4.4-3.13l2.24 1.72-1.3-1.64a3.25 3.25 0 0 1 1.2-5.09c1.16-.49 2.36.06 3.34 1.03l2.47 1.97-2.1-2.45s-2.02-2.28-.17-4.32c1.86-2.04 4.37.4 4.37.4l2.95 2.45-2.54-2.95s-2.2-2.32-.72-3.86c2.06-2.16 4.61-.04 6.62 2.08.58.61 1.17 1.55 1.63 1.98 2.22-2.5 3.71-5.21 3.71-5.21l24.78-14.61z"/><path fill="#fad24d" d="M100.74 45.75l-14.46 9.67L71 35.36 89.39 18a50.06 50.06 0 0 1 11.35 27.75z"/><path fill="#fff" d="M71.47 36l12.88 16.91-2.47 1.88L69 37.88z"/><path fill="#ecf0f1" d="M13.64 49.71c.5 0 .92.41.92.91 0 .51-.41.92-.92.92a.92.92 0 0 1 0-1.83zM10 48.92a.92.92 0 1 0 1.83-.01.92.92 0 0 0-1.83.01z"/><path fill="#fff" d="M87.92 50.71a.92.92 0 1 0 0 1.83.92.92 0 0 0 0-1.83zm3.64-.79a.92.92 0 0 1-1.84 0c0-.51.41-.92.92-.92s.92.41.92.92z"/></svg>