<svg xmlns="http://www.w3.org/2000/svg" width="43" height="43" viewBox="0 0 43 43"><path fill="#ffe356" d="M0 21.5a21.5 21.5 0 1 1 43 0 21.5 21.5 0 0 1-43 0z"/><path fill="#e4e7ed" d="M1 29h40.46A21.64 21.64 0 0 1 1 29z"/><path fill="#5fdc68" d="M31.06 14.53c-.82-5.48 6.44-8.62 9.21-.98 0 0-1.38-1.24-2.51-.91-1.56.46-2.38 4.19-6.68 1.89z"/><path fill="#56bf5d" d="M38.98 12.13c.27.46.52 1 .74 1.6 0 0-1.38-1.24-2.52-.9-.43.12-.8.5-1.2.92.23-.52 1.55-2.22 3-1.62z"/><path fill="#596366" d="M37.66 11.75c-2.82-2.42-6.34 1.27-10.66 7.47l.27.32c1.47-2.06 6.87-10.22 10.39-7.8z"/><path fill="#5fdc68" d="M29.16 14.49c2.78-2.04.51-6.07-4.16-3.83 0 0 1.22-.01 1.65.54.58.77-.63 2.68 2.53 3.29z"/><path fill="#56bf5d" d="M26.06 11c-.34.1-.69.24-1.06.42 0 0 1.22-.01 1.65.55.15.21.19.51.2.84.11-.31.19-1.52-.79-1.8z"/><path fill="#596366" d="M27 11c2.62-.04 2.59 4.02 2.47 5.55l-.39.51c.17-2.06-.02-5.94-2.07-6.06z"/><path fill="#c6cbd6" d="M4 31c0-.55 8.06-1 18-1s18 .45 18 1-8.06 1-18 1-18-.45-18-1z"/><path fill="#fff" d="M6.81 22h31.23c.89 0 1.62.73 1.62 1.63v4.76c0 .55-.44.99-.99.99H4.32C.53 29.38 1.41 22 6.81 22z"/><path fill="#c6cbd6" d="M19 23.5c0-.28.45-.5 1-.5s1 .22 1 .5-.45.5-1 .5-1-.22-1-.5z"/><path fill="#ecf0f1" d="M12 22h.57v2.72H12zm22 0h.57v2.72H34z"/><path fill="#f7f9f7" d="M3 25.83c.2-.65.53-1.28.99-1.83h1.35c.22 0 .41.19.41.43v.97c0 .24-.19.44-.41.44H3z"/><path fill="#ecf0f1" d="M40.56 28v.81a1 1 0 0 1-.99.99H5.22c-1.23 0-1.96-.76-2.22-1.8z"/><path fill="#83cf8f" d="M3 25.64c.19-.58.5-1.15.92-1.64h1.26a.4.4 0 0 1 .39.39v.87a.4.4 0 0 1-.39.39H3z"/><path fill="#596366" d="M11.45 25a3.45 3.45 0 1 1 0 6.9 3.45 3.45 0 0 1 0-6.9z"/><path fill="#ecf0f1" d="M11.06 26a2.06 2.06 0 1 1 0 4.11 2.06 2.06 0 0 1 0-4.11z"/><path fill="#fff" d="M10.99 27a1 1 0 0 1 0 1.98 1 1 0 0 1-.99-.99 1 1 0 0 1 .99-.99z"/><path fill="#596366" d="M34.45 25a3.45 3.45 0 1 1 0 6.9 3.45 3.45 0 0 1 0-6.9z"/><path fill="#ecf0f1" d="M34.06 26a2.06 2.06 0 1 1 0 4.11 2.06 2.06 0 0 1 0-4.11z"/><path fill="#fff" d="M33.99 27a1 1 0 0 1 0 1.98 1 1 0 0 1-.99-.99 1 1 0 0 1 .99-.99zM9 22.25s3.22-3.49 5.69-5.29a4.75 4.75 0 0 1 2.93-.96h10.45a9.2 9.2 0 0 1 5.96 2.81l3 3.44z"/><path fill="#83cf8f" d="M18.71 17h-1.89c-1.49 0-4.72 3.33-5.76 4.48a.26.26 0 0 0-.05.23c.03.08.1.13.19.13h9.53V17zm4.39 0h5.73c.86 0 3.32.87 4.3 2.13l1.85 2.35c.06.06.09.14.06.23a.22.22 0 0 1-.2.13H22V17h1.09z"/><path fill="#f7f9f7" d="M30 17h.57v4.92H30z"/><path fill="#ff7069" d="M39.19 24h.47c.11 0 .19.09.19.19v1.17c0 .11-.09.19-.19.19h-.47a.19.19 0 0 1-.19-.19v-1.17c0-.11.09-.19.19-.19z"/><path fill="#ecf0f1" d="M22 22h.57v7.38H22zm-3 1.5c0-.28.45-.5 1-.5s1 .22 1 .5-.45.5-1 .5-1-.22-1-.5z"/><path fill="#c6cbd6" d="M31 23.5c0-.28.45-.5 1-.5s1 .22 1 .5-.45.5-1 .5-1-.22-1-.5z"/><path fill="#ecf0f1" d="M31 23.5c0-.28.45-.5 1-.5s1 .22 1 .5-.45.5-1 .5-1-.22-1-.5z"/></svg>