<svg width="58" height="70" viewBox="0 0 58 70" xmlns="http://www.w3.org/2000/svg"><g id="Welcome" stroke="none" stroke-width="1" fill="none" fill-rule="evenodd"><g id="prodact-card-wer_1-copy" transform="translate(-554 -1097)" fill="#3BB3F0" fill-rule="nonzero"><g id="icon_cost" transform="translate(554 1097)"><path d="M41 6c-6.616 0-12 5.384-12 12h2.182c0-5.414 4.404-9.818 9.818-9.818V6zm10.818 10c0 5.414-4.404 9.818-9.818 9.818V28c6.616 0 12-5.384 12-12h-2.182z" id="Shape"/><path d="M58 16.935C58 7.597 50.495 0 41.27 0c-6.408 0-11.976 3.667-14.787 9.032H1.115A1.12 1.12 0 0 0 0 10.162V68.87A1.12 1.12 0 0 0 1.115 70h49.077a1.12 1.12 0 0 0 1.116-1.129V30.452A16.973 16.973 0 0 0 58 16.935zM27.916 27.097H6.692v-11.29h17.903c-.024.374-.057.747-.057 1.128 0 3.815 1.268 7.328 3.378 10.162zm21.16 40.645H2.232V11.29h23.283a16.881 16.881 0 0 0-.639 2.258H5.577a1.12 1.12 0 0 0-1.115 1.13v13.548a1.12 1.12 0 0 0 1.115 1.129h24.355c2.985 2.793 6.96 4.516 11.337 4.516 2.82 0 5.475-.716 7.808-1.968v35.839zm-7.807-36.13c-7.995 0-14.5-6.584-14.5-14.677 0-8.092 6.505-14.677 14.5-14.677s14.5 6.585 14.5 14.677c0 8.093-6.505 14.678-14.5 14.678z" id="Shape"/><path d="M42.25 21.857c2.067 0 3.75-1.442 3.75-3.214s-1.683-3.214-3.75-3.214h-2.5c-.69 0-1.25-.48-1.25-1.072 0-.591.56-1.071 1.25-1.071H46v-2.143h-3.75V9h-2.5v2.143c-2.067 0-3.75 1.442-3.75 3.214s1.683 3.214 3.75 3.214h2.5c.69 0 1.25.48 1.25 1.072 0 .591-.56 1.071-1.25 1.071H36v2.143h3.75V24h2.5v-2.143zM14.75 35h-7.5C6.558 35 6 35.503 6 36.125v6.75C6 43.497 6.558 44 7.25 44h7.5c.692 0 1.25-.503 1.25-1.125v-6.75c0-.622-.558-1.125-1.25-1.125zm-1.25 6.75h-5v-4.5h5v4.5z" id="Shape"/><path d="M23.75 35h-7.5c-.692 0-1.25.503-1.25 1.125v6.75c0 .622.558 1.125 1.25 1.125h7.5c.692 0 1.25-.503 1.25-1.125v-6.75c0-.622-.558-1.125-1.25-1.125zm-1.25 6.75h-5v-4.5h5v4.5zM36.75 35h-7.5c-.692 0-1.25.503-1.25 1.125v6.75c0 .622.558 1.125 1.25 1.125h7.5c.692 0 1.25-.503 1.25-1.125v-6.75c0-.622-.558-1.125-1.25-1.125zm-1.25 6.75h-5v-4.5h5v4.5zM14.75 44h-7.5C6.558 44 6 44.503 6 45.125v6.75C6 52.497 6.558 53 7.25 53h7.5c.692 0 1.25-.503 1.25-1.125v-6.75c0-.622-.558-1.125-1.25-1.125zm-1.25 6.75h-5v-4.5h5v4.5z" id="Shape"/><path d="M23.75 44h-7.5c-.692 0-1.25.503-1.25 1.125v6.75c0 .622.558 1.125 1.25 1.125h7.5c.692 0 1.25-.503 1.25-1.125v-6.75c0-.622-.558-1.125-1.25-1.125zm-1.25 6.75h-5v-4.5h5v4.5zM36.75 44h-7.5c-.692 0-1.25.503-1.25 1.125v6.75c0 .622.558 1.125 1.25 1.125h7.5c.692 0 1.25-.503 1.25-1.125v-6.75c0-.622-.558-1.125-1.25-1.125zm-1.25 6.75h-5v-4.5h5v4.5zm2.5-5.639V62.89c0 .615.558 1.111 1.25 1.111h7.5c.692 0 1.25-.496 1.25-1.111V45.11c0-.615-.558-1.111-1.25-1.111h-7.5c-.692 0-1.25.496-1.25 1.111zm2.5 1.111h5v15.556h-5V46.222zM14.75 57h-7.5C6.558 57 6 57.503 6 58.125v6.75C6 65.497 6.558 66 7.25 66h7.5c.692 0 1.25-.503 1.25-1.125v-6.75c0-.622-.558-1.125-1.25-1.125zm-1.25 6.75h-5v-4.5h5v4.5z" id="Shape"/><path d="M23.75 57h-7.5c-.692 0-1.25.503-1.25 1.125v6.75c0 .622.558 1.125 1.25 1.125h7.5c.692 0 1.25-.503 1.25-1.125v-6.75c0-.622-.558-1.125-1.25-1.125zm-1.25 6.75h-5v-4.5h5v4.5zM36.75 57h-7.5c-.692 0-1.25.503-1.25 1.125v6.75c0 .622.558 1.125 1.25 1.125h7.5c.692 0 1.25-.503 1.25-1.125v-6.75c0-.622-.558-1.125-1.25-1.125zm-1.25 6.75h-5v-4.5h5v4.5z" id="Shape"/></g></g></g></svg>