<svg width="67" height="55" viewBox="0 0 67 55" xmlns="http://www.w3.org/2000/svg"><g id="Welcome" stroke="none" stroke-width="1" fill="none" fill-rule="evenodd"><g id="prodact-card-wer_1-copy" transform="translate(-821 -649)"><g id="icon_crush" transform="translate(821 649)"><g id="car" fill="#FFF" fill-rule="nonzero"><path d="M63.304 13.455l-5.364-2.44-4.735-7.525A7.465 7.465 0 0 0 46.842 0H26.67a7.536 7.536 0 0 0-5.98 2.931l-6.117 7.975-10.195 2.781A5.959 5.959 0 0 0 0 19.427v3.885c0 3.285 2.627 5.998 5.925 5.998h.876c1.054 4.049 5.2 6.475 9.264 5.425 2.669-.695 4.763-2.767 5.447-5.425h22.99c1.053 4.049 5.2 6.475 9.264 5.425 2.668-.695 4.762-2.767 5.446-5.425h1.643c3.297 0 5.925-2.713 5.925-5.998V18.88a5.939 5.939 0 0 0-3.476-5.426zM14.15 32.227c-2.682 0-4.858-2.167-4.858-4.84 0-2.671 2.176-4.839 4.858-4.839 2.682 0 4.858 2.168 4.858 4.84.013 2.658-2.162 4.825-4.858 4.84zm37.7 0c-2.682 0-4.858-2.167-4.858-4.84 0-2.671 2.176-4.839 4.858-4.839 2.682 0 4.858 2.168 4.858 4.84.014 2.658-2.162 4.825-4.858 4.84zm9.005-5.644h-1.451c-.452-4.158-4.215-7.157-8.389-6.693a7.569 7.569 0 0 0-6.719 6.693H21.703c-.451-4.158-4.214-7.157-8.388-6.693a7.569 7.569 0 0 0-6.72 6.693h-.683c-1.793 0-3.189-1.486-3.189-3.271v-3.886a3.213 3.213 0 0 1 2.368-3.122l10.66-2.903a1.34 1.34 0 0 0 .725-.491l6.377-8.33a4.844 4.844 0 0 1 3.818-1.853h20.17c1.643-.014 3.19.818 4.051 2.208l4.954 7.88c.137.231.356.409.588.518l5.72 2.603a3.209 3.209 0 0 1 1.875 2.945v4.43h.014c0 1.786-1.396 3.272-3.188 3.272z" id="Shape"/></g><path d="M25.632 28.62l19.911 10.275a.245.245 0 0 1 .002.435L25.632 49.82H41.62L22.294 39.441a.245.245 0 0 1 .004-.434L42.606 28.62" id="Path-2" stroke="#FFF" stroke-width="2.205"/><path id="Rectangle-3" stroke="#FFF" stroke-width="1.96" d="M5.22 50.68h57.4v3.34H5.22z"/></g></g></g></svg>