<svg width="42" height="52" viewBox="0 0 42 52" xmlns="http://www.w3.org/2000/svg"><g id="Welcome" stroke="none" stroke-width="1" fill="none" fill-rule="evenodd"><g id="prodact-card-wer_1-copy" transform="translate(-444 -649)" fill="#FFF" fill-rule="nonzero"><g id="icon-list-copy" transform="translate(444 649)"><path d="M39.375 7.8h-5.25c0-1.436-1.175-2.6-2.625-2.6h-2.625V2.6c0-1.436-1.175-2.6-2.625-2.6h-10.5c-1.45 0-2.625 1.164-2.625 2.6v2.6H10.5c-1.45 0-2.625 1.164-2.625 2.6h-5.25C1.175 7.8 0 8.964 0 10.4v39C0 50.836 1.175 52 2.625 52h36.75C40.825 52 42 50.836 42 49.4v-39c0-1.436-1.175-2.6-2.625-2.6zM10.5 7.8h5.25V2.6h10.5v5.2h5.25v2.6h-21V7.8zm28.875 41.6H2.625v-39h5.25c0 1.436 1.175 2.6 2.625 2.6h21c1.45 0 2.625-1.164 2.625-2.6h5.25v39z" id="Shape"/><path id="Rectangle-path" d="M7 17.627h27.125v1.763H7z"/><path id="Rectangle-path-Copy" d="M7 30.847h27.125v1.763H7z"/><path id="Rectangle-path" d="M7 24.678h27.125v1.763H7z"/><path id="Rectangle-path-Copy-2" d="M7 37.898h27.125v1.763H7z"/></g></g></g></svg>