<svg xmlns="http://www.w3.org/2000/svg" xmlns:xlink="http://www.w3.org/1999/xlink" width="42" height="31" viewBox="0 0 42 31"><defs><path id="q3lga" d="M595 1103c-6.616 0-12 5.384-12 12h2.182c0-5.414 4.404-9.818 9.818-9.818z"/><path id="q3lgb" d="M605.818 1113c0 5.414-4.404 9.818-9.818 9.818V1125c6.616 0 12-5.384 12-12z"/><path id="q3lgc" d="M595.27 1128.613c-7.996 0-14.5-6.585-14.5-14.678 0-8.092 6.504-14.677 14.5-14.677 7.994 0 14.5 6.585 14.5 14.677 0 8.093-6.506 14.678-14.5 14.678zm7.807 36.129H556.23v-56.452h23.283a16.882 16.882 0 0 0-.639 2.258h-19.298a1.12 1.12 0 0 0-1.115 1.13v13.548a1.12 1.12 0 0 0 1.115 1.129h24.355c2.985 2.793 6.96 4.516 11.337 4.516 2.82 0 5.475-.716 7.808-1.968zm-21.151-40.645h-21.234v-11.29h17.912c-.025.374-.057.747-.057 1.128 0 3.815 1.268 7.328 3.379 10.162zM612 1113.935c0-9.338-7.505-16.935-16.73-16.935-6.408 0-11.976 3.667-14.787 9.032h-25.368a1.12 1.12 0 0 0-1.115 1.13v58.709a1.12 1.12 0 0 0 1.115 1.129h49.077a1.12 1.12 0 0 0 1.116-1.129v-38.419a16.973 16.973 0 0 0 6.692-13.517z"/><path id="q3lgd" d="M596.25 1118.857c2.067 0 3.75-1.442 3.75-3.214s-1.683-3.214-3.75-3.214h-2.5c-.69 0-1.25-.48-1.25-1.072 0-.591.56-1.071 1.25-1.071H600v-2.143h-3.75V1106h-2.5v2.143c-2.067 0-3.75 1.442-3.75 3.214s1.683 3.214 3.75 3.214h2.5c.69 0 1.25.48 1.25 1.072 0 .591-.56 1.071-1.25 1.071H590v2.143h3.75V1121h2.5z"/><path id="q3lge" d="M567.5 1138.75h-5v-4.5h5zm1.25-6.75h-7.5c-.692 0-1.25.503-1.25 1.125v6.75c0 .622.558 1.125 1.25 1.125h7.5c.692 0 1.25-.503 1.25-1.125v-6.75c0-.622-.558-1.125-1.25-1.125z"/><path id="q3lgf" d="M576.5 1138.75h-5v-4.5h5zm1.25-6.75h-7.5c-.692 0-1.25.503-1.25 1.125v6.75c0 .622.558 1.125 1.25 1.125h7.5c.692 0 1.25-.503 1.25-1.125v-6.75c0-.622-.558-1.125-1.25-1.125z"/><path id="q3lgg" d="M589.5 1138.75h-5v-4.5h5zm1.25-6.75h-7.5c-.692 0-1.25.503-1.25 1.125v6.75c0 .622.558 1.125 1.25 1.125h7.5c.692 0 1.25-.503 1.25-1.125v-6.75c0-.622-.558-1.125-1.25-1.125z"/><path id="q3lgh" d="M567.5 1147.75h-5v-4.5h5zm1.25-6.75h-7.5c-.692 0-1.25.503-1.25 1.125v6.75c0 .622.558 1.125 1.25 1.125h7.5c.692 0 1.25-.503 1.25-1.125v-6.75c0-.622-.558-1.125-1.25-1.125z"/><path id="q3lgi" d="M576.5 1147.75h-5v-4.5h5zm1.25-6.75h-7.5c-.692 0-1.25.503-1.25 1.125v6.75c0 .622.558 1.125 1.25 1.125h7.5c.692 0 1.25-.503 1.25-1.125v-6.75c0-.622-.558-1.125-1.25-1.125z"/><path id="q3lgj" d="M589.5 1147.75h-5v-4.5h5zm1.25-6.75h-7.5c-.692 0-1.25.503-1.25 1.125v6.75c0 .622.558 1.125 1.25 1.125h7.5c.692 0 1.25-.503 1.25-1.125v-6.75c0-.622-.558-1.125-1.25-1.125z"/><path id="q3lgk" d="M594.5 1143.222h5v15.556h-5zm-2.5-1.11v17.777c0 .615.558 1.111 1.25 1.111h7.5c.692 0 1.25-.496 1.25-1.111v-17.778c0-.615-.558-1.111-1.25-1.111h-7.5c-.692 0-1.25.496-1.25 1.111z"/><path id="q3lgl" d="M567.5 1160.75h-5v-4.5h5zm1.25-6.75h-7.5c-.692 0-1.25.503-1.25 1.125v6.75c0 .622.558 1.125 1.25 1.125h7.5c.692 0 1.25-.503 1.25-1.125v-6.75c0-.622-.558-1.125-1.25-1.125z"/><path id="q3lgm" d="M576.5 1160.75h-5v-4.5h5zm1.25-6.75h-7.5c-.692 0-1.25.503-1.25 1.125v6.75c0 .622.558 1.125 1.25 1.125h7.5c.692 0 1.25-.503 1.25-1.125v-6.75c0-.622-.558-1.125-1.25-1.125z"/><path id="q3lgn" d="M589.5 1160.75h-5v-4.5h5zm1.25-6.75h-7.5c-.692 0-1.25.503-1.25 1.125v6.75c0 .622.558 1.125 1.25 1.125h7.5c.692 0 1.25-.503 1.25-1.125v-6.75c0-.622-.558-1.125-1.25-1.125z"/></defs><g><g transform="translate(-560 -1132)"><g><use fill="#3bb3f0" xlink:href="#q3lga"/></g><g><use fill="#3bb3f0" xlink:href="#q3lgb"/></g><g><use fill="#3bb3f0" xlink:href="#q3lgc"/></g><g><use fill="#3bb3f0" xlink:href="#q3lgd"/></g><g><use fill="#3bb3f0" xlink:href="#q3lge"/></g><g><use fill="#3bb3f0" xlink:href="#q3lgf"/></g><g><use fill="#3bb3f0" xlink:href="#q3lgg"/></g><g><use fill="#3bb3f0" xlink:href="#q3lgh"/></g><g><use fill="#3bb3f0" xlink:href="#q3lgi"/></g><g><use fill="#3bb3f0" xlink:href="#q3lgj"/></g><g><use fill="#3bb3f0" xlink:href="#q3lgk"/></g><g><use fill="#3bb3f0" xlink:href="#q3lgl"/></g><g><use fill="#3bb3f0" xlink:href="#q3lgm"/></g><g><use fill="#3bb3f0" xlink:href="#q3lgn"/></g></g></g></svg>