<svg xmlns="http://www.w3.org/2000/svg" xmlns:xlink="http://www.w3.org/1999/xlink" width="28" height="23" viewBox="0 0 28 23"><defs><path id="zegpa" d="M483.375 698.4h-36.75v-39h5.25c0 1.436 1.175 2.6 2.625 2.6h21c1.45 0 2.625-1.164 2.625-2.6h5.25zM454.5 656.8h5.25v-5.2h10.5v5.2h5.25v2.6h-21zm28.875 0h-5.25c0-1.436-1.175-2.6-2.625-2.6h-2.625v-2.6c0-1.436-1.175-2.6-2.625-2.6h-10.5c-1.45 0-2.625 1.164-2.625 2.6v2.6H454.5c-1.45 0-2.625 1.164-2.625 2.6h-5.25c-1.45 0-2.625 1.164-2.625 2.6v39c0 1.436 1.175 2.6 2.625 2.6h36.75c1.45 0 2.625-1.164 2.625-2.6v-39c0-1.436-1.175-2.6-2.625-2.6z"/><path id="zegpb" d="M451 668.39v-1.76h27.13v1.76z"/><path id="zegpc" d="M451 681.61v-1.76h27.13v1.76z"/><path id="zegpd" d="M451 675.44v-1.76h27.13v1.76z"/><path id="zegpe" d="M451 688.66v-1.76h27.13v1.76z"/></defs><g><g transform="translate(-451 -666)"><g><use fill="#fff" xlink:href="#zegpa"/></g><g><use fill="#fff" xlink:href="#zegpb"/></g><g><use fill="#fff" xlink:href="#zegpc"/></g><g><use fill="#fff" xlink:href="#zegpd"/></g><g><use fill="#fff" xlink:href="#zegpe"/></g></g></g></svg>