<svg width="39" height="57" viewBox="0 0 39 57" xmlns="http://www.w3.org/2000/svg"><g id="Welcome" stroke="none" stroke-width="1" fill="none" fill-rule="evenodd"><g id="prodact-card-wer_1-copy" transform="translate(-1212 -649)" fill="#FFF" fill-rule="nonzero"><g id="icon_auction" transform="translate(1212 649)"><path d="M36.663 0H2.337C1.047 0 0 1.063 0 2.375v45.909c0 1.311 1.046 2.375 2.337 2.375H5.97v5.153c0 .656.523 1.188 1.169 1.188.341 0 .666-.152.888-.416l2.57-3.04 2.57 3.04c.42.499 1.157.557 1.648.131.26-.226.409-.555.409-.903V50.66h21.44c1.29 0 2.336-1.064 2.336-2.375V2.375C39 1.063 37.954 0 36.663 0zm-24.99 51.158c-.396-.552-1.094-.617-1.558-.145a1.242 1.242 0 0 0-.122.145L8.667 53v-5A5.233 5.233 0 0 0 13 48v5l-1.327-1.842zm3.494-9.658c0 2.466-1.912 4.473-4.286 4.5h-.048C8.44 46 6.5 43.985 6.5 41.5S8.44 37 10.833 37c2.394 0 4.334 2.015 4.334 4.5zM36.774 48H15.181v-1.726c2.645-2.603 2.697-6.875.116-9.543a6.65 6.65 0 0 0-9.46-.116c-2.645 2.603-2.697 6.875-.116 9.543l.115.116V48h-3.67V2h34.667l-.059 46z" id="Shape"/><path d="M31.658 12H8.342C7.6 12 7 12.448 7 13s.6 1 1.342 1h23.316C32.4 14 33 13.552 33 13s-.6-1-1.342-1zm0 5H8.342C7.6 17 7 17.448 7 18s.6 1 1.342 1h23.316C32.4 19 33 18.552 33 18s-.6-1-1.342-1zm0 8H8.342C7.6 25 7 25.448 7 26s.6 1 1.342 1h23.316C32.4 27 33 26.552 33 26s-.6-1-1.342-1zm0 6H8.342C7.6 31 7 31.448 7 32s.6 1 1.342 1h23.316C32.4 33 33 32.552 33 32s-.6-1-1.342-1z" id="Shape"/></g></g></g></svg>