<svg width="52" height="48" viewBox="0 0 52 48" xmlns="http://www.w3.org/2000/svg"><g id="Page-1" stroke="none" stroke-width="1" fill="none" fill-rule="evenodd"><g id="Facebook" transform="translate(-796 -213)" fill-rule="nonzero"><g id="social-header" transform="translate(796 213)"><path d="M31 10.5C31 4.701 35.701 0 41.5 0S52 4.701 52 10.5 47.299 21 41.5 21 31 16.299 31 10.5z" id="Shape" fill="#3B5998"/><path d="M44.02 10.79h-1.86v6.81h-2.82v-6.81H38v-2.4h1.34V6.84c0-1.1.53-2.84 2.84-2.84l2.09.01v2.32h-1.51c-.25 0-.6.13-.6.66V8.4h2.11l-.25 2.39z" id="Shape" fill="#FFF"/><g id="telegram"><circle id="Oval" fill="#41B4E6" cx="10.5" cy="10.5" r="10.5"/><path id="Shape" fill="#FFF" d="M9.48 12.03l4.745 3.582 2.396-10.224-12.242 4.815 3.725 1.234 6.798-4.56z"/><path id="Shape" fill="#D2D2D7" d="M8.104 11.437l1.02 3.67.356-3.077 5.422-5.153z"/><path id="Shape" fill="#B9B9BE" d="M11.022 13.194l-1.898 1.914.356-3.078z"/></g><path d="M10.48 27a10.48 10.48 0 1 1 .637 20.95A10.48 10.48 0 0 1 10.48 27z" id="Shape" fill="#C4302B"/><path d="M9.87 35.32a.77.77 0 0 1-.29-.63V33.1c0-.24.1-.43.3-.57.2-.14.46-.21.79-.21.3 0 .55.07.74.22a.7.7 0 0 1 .29.58v1.59c0 .26-.09.46-.28.62a1.3 1.3 0 0 1-1.55-.01zm.42-2.14v1.51c0 .07.03.13.09.17.06.05.14.07.25.07.11 0 .2-.03.26-.07.07-.04.1-.1.1-.17v-1.51c0-.06-.03-.11-.1-.15a.48.48 0 0 0-.26-.06c-.1 0-.18.02-.24.06-.07.04-.1.09-.1.15zm2.22 2.22a.68.68 0 0 1-.11-.42v-2.66h.62v2.44c0 .07.01.13.04.16.02.04.06.05.12.05.05 0 .1-.02.17-.07.07-.04.14-.1.19-.17v-2.41h.62v3.18h-.62v-.35c-.11.13-.23.23-.35.29-.13.07-.24.14-.36.14a.4.4 0 0 1-.32-.18zm4.27 3.56v1.75c0 1.14-.96 2.07-2.15 2.07H7.15A2.11 2.11 0 0 1 5 40.71v-1.75a2.1 2.1 0 0 1 2.15-2.06h7.48a2.1 2.1 0 0 1 2.15 2.06zm-8.52-.76H6.3v.47h.66v2.74h.64v-2.74h.66v-.47zm1.98.66h-.69v1.96c-.07.06-.14.1-.22.14a.41.41 0 0 1-.19.06.2.2 0 0 1-.14-.05c-.03-.02-.04-.07-.04-.13v-1.98h-.69v2.16c0 .16.04.27.12.35.08.07.2.11.36.11a1.3 1.3 0 0 0 .8-.32v.29h.69v-2.59zm2.61.76a.57.57 0 0 0-.17-.44.75.75 0 0 0-.5-.16c-.1 0-.21.02-.31.06-.1.04-.2.1-.29.17V38.2h-.69v3.25h.69v-.19c.09.08.18.13.29.17.1.03.22.05.35.05.21 0 .36-.05.47-.14a.5.5 0 0 0 .16-.39v-1.33zm2.62-.03c0-.23-.08-.42-.24-.54-.17-.13-.4-.19-.71-.19-.29 0-.53.07-.72.2a.63.63 0 0 0-.28.53v1.11c0 .24.08.43.25.57.17.13.41.2.71.2.33 0 .57-.06.74-.19.17-.13.25-.32.25-.58v-.12h-.68v.11c0 .15-.02.24-.07.28-.04.05-.12.07-.23.07-.11 0-.18-.03-.23-.08-.04-.05-.06-.14-.06-.27v-.47h1.27v-.63zm-7.58-5.82L6.96 31h.79l.51 1.83h.05L8.79 31h.79l-.91 2.68v1.91h-.78v-1.82zm3.97 5.63l-.14.03-.14.07v1.49c.05.04.11.07.16.09l.16.02c.09 0 .15-.01.19-.05.03-.03.05-.09.05-.16v-1.24c0-.08-.02-.14-.07-.18a.33.33 0 0 0-.21-.07z" id="Shape" fill="#FFF"/><path d="M14.3 39c-.11 0-.19.02-.23.07-.05.04-.07.12-.07.22v.25h.59v-.25c0-.1-.03-.18-.07-.22-.05-.05-.12-.07-.22-.07z" id="Shape" fill="#FFF"/><path d="M44.05 33h-6.24c-1 0-1.81.81-1.81 1.81v6.24c0 1 .81 1.81 1.81 1.81h6.24c1 0 1.81-.81 1.81-1.81v-6.24c0-1-.81-1.81-1.81-1.81zm-3.12 8.17a3.25 3.25 0 1 1 0-6.5 3.25 3.25 0 0 1 0 6.5zm3.35-5.82a.76.76 0 1 1 0-1.52.76.76 0 0 1 0 1.52z" id="Shape" fill="#6A453B"/><path d="M40.87 36a1.875 1.875 0 1 0 0 3.75 1.875 1.875 0 0 0 0-3.75z" id="Shape" fill="#6A453B"/><path d="M40.47 27a10.475 10.475 0 1 0 0 20.95c5.785 0 10.475-4.69 10.475-10.475C50.945 31.69 46.255 27 40.47 27zm6.3 13.62a3.18 3.18 0 0 1-3.18 3.18h-6.24a3.19 3.19 0 0 1-3.18-3.18v-6.24a3.19 3.19 0 0 1 3.18-3.18h6.24a3.18 3.18 0 0 1 3.18 3.18v6.24z" id="Shape" fill="#6A453B"/></g></g></g></svg>