<svg xmlns="http://www.w3.org/2000/svg" width="122" height="121" viewBox="0 0 122 121"><path fill="#ecf0f1" d="M39.13 86.95l-16.48 8.99c-.97.53-1.84 1.17-2.65 1.88a55.01 55.01 0 0 0 35.57 12.99A54.98 54.98 0 0 0 90.94 98a14.6 14.6 0 0 0-2.91-1.94l-17.65-8.83a6.73 6.73 0 0 1-3.72-6.02v-6.93c.5-.56 1.06-1.29 1.67-2.14a40.53 40.53 0 0 0 5.49-11.06 5.55 5.55 0 0 0 3.93-5.27v-7.4c0-1.62-.72-3.08-1.85-4.09V33.63S78.1 17 55.58 17c-22.53 0-20.33 16.63-20.33 16.63v10.69a5.48 5.48 0 0 0-1.85 4.09v7.4a5.56 5.56 0 0 0 2.56 4.65 36.7 36.7 0 0 0 6.68 13.82v6.76a6.74 6.74 0 0 1-3.51 5.91z"/><path fill="#556080" d="M56.19.01A55.24 55.24 0 0 0 .01 54.3 55.05 55.05 0 0 0 19.7 97.48c.8-.7 1.66-1.34 2.62-1.86l16.48-8.99a6.74 6.74 0 0 0 3.51-5.91v-6.76s-4.84-5.78-6.68-13.83a5.55 5.55 0 0 1-2.56-4.65v-7.39a5.5 5.5 0 0 1 1.85-4.1V33.31s-2.2-16.63 20.32-16.63c22.53 0 20.33 16.63 20.33 16.63v10.68a5.5 5.5 0 0 1 1.85 4.1v7.39a5.55 5.55 0 0 1-3.93 5.28A41.1 41.1 0 0 1 68 71.82c-.61.85-1.18 1.58-1.67 2.14v6.93a6.73 6.73 0 0 0 3.72 6.02l17.65 8.82c1.06.53 2.02 1.2 2.9 1.95A55.24 55.24 0 0 0 56.19.01z"/><path fill="#eddcc7" d="M77.16 101l-.02.01-4.14 15.2 9.69-9.69z"/><path fill="#d75a4a" d="M116.92 71.81l-2.6-2.6a4.15 4.15 0 0 0-5.85 0L101 76.68l5.52 5.53z"/><path fill="#f29c21" d="M88 109V75h8v34z"/><path fill="#d6c4b1" d="M88.22 113.28l.01-.01-6.26-6.27-9.69 9.69-.28 1.02z"/><path fill="#a34740" d="M113.27 88.66l7.47-7.47a4.15 4.15 0 0 0 0-5.85L117.4 72 107 82.39z"/><path fill="#e18c25" d="M93 115V81h9v34z"/><path fill="#5e5e5e" d="M71.09 120.77a2.1 2.1 0 0 1-1.48-3.56l4.6-4.6a2.1 2.1 0 0 1 2.95 0c.82.82.82 2.13 0 2.95l-4.6 4.6c-.41.41-.94.61-1.47.61z"/></svg>