<svg xmlns="http://www.w3.org/2000/svg" width="38" height="38" viewBox="0 0 38 38"><path fill="#8e5db6" d="M18.5 32C25.94 32 32 25.94 32 18.5S25.94 5 18.5 5 5 11.06 5 18.5 11.06 32 18.5 32"/><path fill="#fff" d="M18.69 10a6.96 6.96 0 0 1 6.84 5.74c.08.59.17 1.18.17 1.77 0 .25-.09.51-.43.51-.25 0-.42-.26-.42-.51 0-.51-.08-1.01-.17-1.43a5.99 5.99 0 0 0-4.89-5.07c-.42-.08-.76-.08-1.18-.08-.26 0-.59 0-.59-.34-.09-.25.17-.42.42-.51.17-.08.17-.08.25-.08 3.46.08-.08 0 0 0"/><path fill="#fff" d="M24.06 16.98v.25c-.08.34-.59.42-.76 0v-.34c0-.75-.16-1.43-.5-2.11a3.47 3.47 0 0 0-1.61-1.51c-.42-.17-.84-.34-1.26-.43-.17 0-.42-.08-.59-.08-.26 0-.34-.17-.34-.42 0-.26.17-.34.42-.34.76.08 1.52.25 2.28.59a4.54 4.54 0 0 1 2.45 3.55v.25c-.17.17-.17.34-.09.59 0 .08-.08-.25 0 0"/><path fill="#fff" d="M21.53 16.95c-.25 0-.42-.17-.5-.42 0-.17 0-.34-.09-.5a1.56 1.56 0 0 0-.59-.93c-.17-.09-.34-.17-.42-.26-.17 0-.34 0-.59-.08-.26-.08-.34-.25-.34-.42 0-.17.25-.34.42-.34 1.35.08 2.28.76 2.36 2.36v.34c.09.17-.08.25-.25.25-.25 0 .17 0 0 0"/><path fill="none" stroke="#fff" stroke-miterlimit="50" d="M22.63 26.3c-.26-.09-.6-.17-.86-.26-2.67-1.12-5.08-2.5-7.06-4.74a16.15 16.15 0 0 1-2.67-4.13c-.35-.69-.61-1.47-.95-2.16-.26-.68.09-1.37.52-1.8.43-.43.86-.87 1.46-1.12.43-.18.86-.09 1.21.25.69.78 1.29 1.64 1.81 2.5.34.61.25 1.21-.35 1.64a1.6 1.6 0 0 0-.43.34c-.09.09-.26.18-.26.35a.82.82 0 0 0-.08.77 7 7 0 0 0 3.79 4.22c.34.09.6.26.94.26.61-.08.78-.69 1.21-1.03.43-.35.95-.35 1.38-.09.43.26.86.61 1.29.86.43.26.86.61 1.21.95.34.35.51.78.25 1.21a4.03 4.03 0 0 1-1.72 1.89c-.17 0-.43.09-.69.09-.26-.09.26 0 0 0"/></svg>