<svg xmlns="http://www.w3.org/2000/svg" xmlns:xlink="http://www.w3.org/1999/xlink" width="60" height="28" viewBox="0 0 60 28"><defs><path id="30iqa" d="M825.24 704v-5.3h59.36v5.3z"/><path id="30iqb" d="M881.855 675.573h-1.451c-.452-4.156-4.215-7.154-8.389-6.69a7.567 7.567 0 0 0-6.719 6.69h-22.593c-.451-4.156-4.214-7.154-8.388-6.69a7.567 7.567 0 0 0-6.72 6.69h-.683c-1.793 0-3.189-1.485-3.189-3.27v-3.884a3.212 3.212 0 0 1 2.368-3.12l10.66-2.903c.287-.081.547-.245.725-.49l6.377-8.326a4.844 4.844 0 0 1 3.818-1.853h20.17c1.643-.014 3.19.817 4.051 2.207l4.954 7.876c.137.232.356.41.588.518l5.72 2.603a3.207 3.207 0 0 1 1.875 2.943v4.429h.014c0 1.785-1.396 3.27-3.188 3.27zm-9.005 5.654c-2.682 0-4.858-2.167-4.858-4.84 0-2.671 2.176-4.839 4.858-4.839 2.682 0 4.858 2.168 4.858 4.84.014 2.658-2.162 4.825-4.858 4.84zm-37.7 0c-2.682 0-4.858-2.167-4.858-4.84 0-2.671 2.176-4.839 4.858-4.839 2.682 0 4.858 2.168 4.858 4.84.013 2.658-2.163 4.825-4.858 4.84zm49.154-18.772l-5.364-2.44-4.735-7.525a7.465 7.465 0 0 0-6.363-3.49H847.67a7.536 7.536 0 0 0-5.98 2.931l-6.117 7.975-10.195 2.781a5.959 5.959 0 0 0-4.379 5.74v3.885c0 3.285 2.627 5.998 5.925 5.998h.876c1.054 4.049 5.2 6.475 9.264 5.425 2.669-.695 4.763-2.767 5.447-5.425h22.99c1.053 4.049 5.2 6.475 9.264 5.425 2.668-.695 4.762-2.767 5.446-5.425h1.643c3.297 0 5.925-2.713 5.925-5.998v-4.431a5.939 5.939 0 0 0-3.476-5.426z"/><path id="30iqc" d="M846.63 677.62l20.329 10.49-20.329 10.71h15.987l-19.737-10.6 20.724-10.6"/><clipPath id="30iqd"><use fill="#fff" xlink:href="#30iqa"/></clipPath></defs><g><g transform="translate(-825 -676)"><g><g><use fill="#fff" xlink:href="#30iqb"/></g></g><g><use fill="#fff" fill-opacity="0" stroke="#fff" stroke-miterlimit="50" stroke-width="2.21" xlink:href="#30iqc"/></g><g><use fill="#fff" fill-opacity="0" stroke="#fff" stroke-miterlimit="50" stroke-width="3.92" clip-path="url(&quot;#30iqd&quot;)" xlink:href="#30iqa"/></g></g></g></svg>